<?xml version="1.0" encoding="UTF-8"?>
<svg xmlns="http://www.w3.org/2000/svg" width="1600" height="900" viewBox="0 0 1600 900" role="img" aria-labelledby="title desc">
<title id="title">ZigZag N Strategy vs CSI300</title>
<desc id="desc">2016-04-29 to 2026-04-29 | Positive N hold, reverse N sell | Top 10% by amount</desc>
<style>
text{font-family:Arial,Helvetica,sans-serif}.title{font-size:34px;font-weight:600;fill:#1f2933}.subtitle{font-size:20px;fill:#52616b}.axis-label{font-size:18px;fill:#52616b}.small{font-size:16px;fill:#52616b}.legend{font-size:20px;fill:#1f2933}.grid{stroke:#e2e5e8;stroke-width:1}.axis{stroke:#2f3a45;stroke-width:2}.series{fill:none;stroke-linejoin:round;stroke-linecap:round}
</style>
<rect x="0" y="0" width="1600" height="900" fill="#fbfbf8"/>
<text class="title" x="110" y="73">ZigZag N Strategy vs CSI300</text>
<text class="subtitle" x="110" y="106">2016-04-29 to 2026-04-29 | Positive N hold, reverse N sell | Top 10% by amount</text>
<line class="grid" x1="110" y1="780.00" x2="1530" y2="780.00"/>
<text class="axis-label" x="95" y="786.00" text-anchor="end">0.50x</text>
<line class="grid" x1="110" y1="670.83" x2="1530" y2="670.83"/>
<text class="axis-label" x="95" y="676.83" text-anchor="end">1.0x</text>
<line class="grid" x1="110" y1="561.67" x2="1530" y2="561.67"/>
<text class="axis-label" x="95" y="567.67" text-anchor="end">1.5x</text>
<line class="grid" x1="110" y1="452.50" x2="1530" y2="452.50"/>
<text class="axis-label" x="95" y="458.50" text-anchor="end">2.0x</text>
<line class="grid" x1="110" y1="343.33" x2="1530" y2="343.33"/>
<text class="axis-label" x="95" y="349.33" text-anchor="end">2.5x</text>
<line class="grid" x1="110" y1="234.17" x2="1530" y2="234.17"/>
<text class="axis-label" x="95" y="240.17" text-anchor="end">3.0x</text>
<line class="grid" x1="110" y1="125.00" x2="1530" y2="125.00"/>
<text class="axis-label" x="95" y="131.00" text-anchor="end">3.5x</text>
<line class="axis" x1="110" y1="125" x2="110" y2="780"/>
<line class="axis" x1="110" y1="780" x2="1530" y2="780"/>
<line x1="110.00" y1="125" x2="110.00" y2="780" stroke="#eef0f2" stroke-width="1"/>
<text class="axis-label" x="110.00" y="816" text-anchor="middle">2016</text>
<line x1="207.12" y1="125" x2="207.12" y2="780" stroke="#eef0f2" stroke-width="1"/>
<text class="axis-label" x="207.12" y="816" text-anchor="middle">2017</text>
<line x1="349.88" y1="125" x2="349.88" y2="780" stroke="#eef0f2" stroke-width="1"/>
<text class="axis-label" x="349.88" y="816" text-anchor="middle">2018</text>
<line x1="492.06" y1="125" x2="492.06" y2="780" stroke="#eef0f2" stroke-width="1"/>
<text class="axis-label" x="492.06" y="816" text-anchor="middle">2019</text>
<line x1="634.82" y1="125" x2="634.82" y2="780" stroke="#eef0f2" stroke-width="1"/>
<text class="axis-label" x="634.82" y="816" text-anchor="middle">2020</text>
<line x1="777.00" y1="125" x2="777.00" y2="780" stroke="#eef0f2" stroke-width="1"/>
<text class="axis-label" x="777.00" y="816" text-anchor="middle">2021</text>
<line x1="919.17" y1="125" x2="919.17" y2="780" stroke="#eef0f2" stroke-width="1"/>
<text class="axis-label" x="919.17" y="816" text-anchor="middle">2022</text>
<line x1="1060.76" y1="125" x2="1060.76" y2="780" stroke="#eef0f2" stroke-width="1"/>
<text class="axis-label" x="1060.76" y="816" text-anchor="middle">2023</text>
<line x1="1202.35" y1="125" x2="1202.35" y2="780" stroke="#eef0f2" stroke-width="1"/>
<text class="axis-label" x="1202.35" y="816" text-anchor="middle">2024</text>
<line x1="1343.94" y1="125" x2="1343.94" y2="780" stroke="#eef0f2" stroke-width="1"/>
<text class="axis-label" x="1343.94" y="816" text-anchor="middle">2025</text>
<line x1="1486.12" y1="125" x2="1486.12" y2="780" stroke="#eef0f2" stroke-width="1"/>
<text class="axis-label" x="1486.12" y="816" text-anchor="middle">2026</text>
<polyline class="series" points="110.00,670.83 110.59,666.91 111.17,667.19 111.76,666.88 112.34,672.66 112.93,677.14 113.51,676.89 114.10,675.95 114.68,675.44 115.27,676.49 115.85,675.08 116.44,675.73 117.02,676.97 117.61,677.35 118.19,676.26 118.78,675.64 119.36,677.28 119.95,677.58 120.53,677.23 121.12,677.35 121.70,677.06 122.29,669.95 122.87,670.57 123.46,670.12 124.04,668.58 124.63,669.31 125.21,669.43 125.80,670.33 126.38,677.09 126.97,676.42 127.55,673.63 128.14,675.13 128.72,674.04 129.31,673.88 129.89,674.32 130.48,672.41 131.06,673.56 131.65,676.34 132.23,673.34 132.82,672.24 133.40,671.20 133.99,671.03 134.57,671.01 135.16,667.52 135.74,667.33 136.33,666.68 136.91,667.15 137.50,668.38 138.08,667.61 138.67,662.78 139.25,662.11 139.84,662.53 140.42,662.57 141.01,663.55 141.59,664.51 142.18,665.24 142.76,664.21 143.35,666.10 143.93,665.71 144.52,663.03 145.11,666.58 145.69,666.38 146.28,667.57 146.86,669.45 147.45,668.60 148.03,668.29 148.62,667.75 149.20,667.49 149.79,665.48 150.37,663.90 150.96,664.84 151.54,665.53 152.13,661.32 152.71,654.46 153.30,655.51 153.88,655.87 154.47,656.47 155.05,656.43 155.64,658.38 156.22,658.03 156.81,658.86 157.39,660.31 157.98,660.44 158.56,660.39 159.15,660.10 159.73,659.00 160.32,660.82 160.90,659.95 161.49,659.56 162.07,657.98 162.66,658.10 163.24,658.19 163.83,659.68 164.41,663.51 165.00,663.67 165.58,665.16 166.17,663.48 166.75,663.87 167.34,663.23 167.92,661.54 168.51,662.61 169.09,666.44 169.68,665.02 170.26,665.71 170.85,664.77 171.43,664.16 172.02,661.35 172.60,660.47 173.19,660.92 173.77,660.74 174.36,660.52 174.94,662.46 175.53,659.45 176.11,659.80 176.70,659.64 177.28,659.01 177.87,656.25 178.45,656.26 179.04,657.14 179.63,657.76 180.21,658.15 180.80,658.42 181.38,656.84 181.97,658.62 182.55,656.42 183.14,657.18 183.72,657.01 184.31,656.01 184.89,657.26 185.48,654.66 186.06,652.82 186.65,651.92 187.23,651.94 187.82,651.96 188.40,651.48 188.99,652.80 189.57,651.17 190.16,649.28 190.74,648.84 191.33,647.87 191.91,645.62 192.50,644.67 193.08,642.66 193.67,644.46 194.25,642.59 194.84,645.09 195.42,649.21 196.01,649.92 196.59,648.77 197.18,649.16 197.76,647.53 198.35,653.37 198.93,653.66 199.52,655.47 200.10,658.13 200.69,657.74 201.27,658.92 201.86,660.30 202.44,658.26 203.03,658.46 203.61,660.40 204.20,659.38 204.78,659.79 205.37,660.79 205.95,661.08 206.54,660.23 207.12,658.00 207.71,656.20 208.29,656.24 208.88,657.63 209.46,656.51 210.05,656.90 210.63,658.54 211.22,659.71 211.80,659.55 212.39,659.58 212.97,659.10 213.56,658.20 214.15,658.90 214.73,657.13 215.32,656.49 215.90,656.47 216.49,655.68 217.07,654.84 217.66,656.47 218.24,655.86 218.83,656.38 219.41,655.16 220.00,654.27 220.58,653.08 221.17,651.50 221.75,651.53 222.34,652.51 222.92,651.18 223.51,652.53 224.09,649.07 224.68,648.28 225.26,647.80 225.85,648.94 226.43,648.90 227.02,650.81 227.60,650.36 228.19,649.97 228.77,651.58 229.36,652.08 229.94,650.79 230.53,650.28 231.11,650.64 231.70,652.15 232.28,652.08 232.87,649.99 233.45,650.09 234.04,649.61 234.62,648.37 235.21,650.84 235.79,650.58 236.38,649.42 236.96,650.55 237.55,649.72 238.13,647.81 238.72,648.61 239.30,649.18 239.89,649.50 240.47,651.47 241.06,650.13 241.64,646.82 242.23,646.12 242.81,645.89 243.40,646.74 243.98,645.89 244.57,646.44 245.15,646.09 245.74,648.03 246.32,648.48 246.91,649.67 247.49,650.84 248.08,649.75 248.67,649.39 249.25,651.85 249.84,651.18 250.42,650.88 251.01,650.78 251.59,651.26 252.18,652.17 252.76,653.10 253.35,653.71 253.93,655.22 254.52,656.86 255.10,657.29 255.69,658.32 256.27,657.01 256.86,655.02 257.44,654.07 258.03,652.03 258.61,653.32 259.20,654.14 259.78,653.74 260.37,653.23 260.95,652.34 261.54,652.34 262.12,648.08 262.71,648.45 263.29,647.59 263.88,647.25 264.46,648.03 265.05,649.25 265.63,647.59 266.22,644.75 266.80,642.88 267.39,641.82 267.97,641.95 268.56,641.40 269.14,644.65 269.73,645.10 270.31,645.80 270.90,643.38 271.48,643.88 272.07,641.01 272.65,640.84 273.24,638.59 273.82,635.47 274.41,635.01 274.99,636.98 275.58,635.42 276.16,635.56 276.75,636.66 277.33,638.79 277.92,636.05 278.50,636.02 279.09,636.31 279.67,636.46 280.26,635.28 280.84,636.11 281.43,634.16 282.01,633.05 282.60,635.78 283.19,635.53 283.77,631.20 284.36,629.95 284.94,631.28 285.53,630.25 286.11,631.91 286.70,632.89 287.28,632.42 287.87,631.75 288.45,630.64 289.04,628.39 289.62,629.05 290.21,631.34 290.79,632.74 291.38,631.41 291.96,631.03 292.55,631.11 293.13,632.16 293.72,636.90 294.30,633.63 294.89,632.84 295.47,633.16 296.06,631.79 296.64,631.55 297.23,630.42 297.81,629.64 298.40,629.38 298.98,630.86 299.57,626.64 300.15,623.39 300.74,623.95 301.32,623.97 301.91,624.82 302.49,624.23 303.08,623.19 303.66,622.40 304.25,622.92 304.83,624.28 305.42,624.55 306.00,624.57 306.59,623.72 307.17,623.40 307.76,624.27 308.34,624.18 308.93,623.36 309.51,624.12 310.10,623.41 310.68,623.73 311.27,623.73 311.85,625.11 312.44,624.91 313.02,624.88 313.61,624.78 314.19,623.82 314.78,620.66 315.36,620.13 315.95,619.24 316.53,618.53 317.12,617.97 317.70,618.50 318.29,618.52 318.88,616.37 319.46,617.27 320.05,617.57 320.63,617.30 321.22,615.32 321.80,614.11 322.39,612.95 322.97,610.99 323.56,611.84 324.14,612.05 324.73,612.74 325.31,612.71 325.90,613.02 326.48,611.07 327.07,608.76 327.65,609.19 328.24,607.26 328.82,604.77 329.41,603.65 329.99,605.64 330.58,607.42 331.16,605.25 331.75,604.15 332.33,602.56 332.92,597.45 333.50,596.77 334.09,605.43 334.67,605.30 335.26,609.06 335.84,608.65 336.43,608.79 337.01,612.09 337.60,612.64 338.18,611.21 338.77,609.73 339.35,611.42 339.94,614.51 340.52,612.28 341.11,607.70 341.69,611.40 342.28,609.05 342.86,610.70 343.45,613.83 344.03,613.53 344.62,610.07 345.20,610.40 345.79,607.82 346.37,608.73 346.96,609.64 347.54,608.80 348.13,613.12 348.71,611.20 349.30,610.38 349.88,606.47 350.47,604.81 351.05,603.60 351.64,602.91 352.22,601.43 352.81,599.42 353.40,598.14 353.98,598.29 354.57,596.95 355.15,596.93 355.74,594.63 356.32,595.35 356.91,593.74 357.49,592.77 358.08,589.23 358.66,586.05 359.25,585.54 359.83,587.26 360.42,586.14 361.00,591.62 361.59,594.80 362.17,593.43 362.76,595.50 363.34,593.75 363.93,593.55 364.51,602.21 365.10,609.02 365.68,611.68 366.27,623.53 366.85,620.11 367.44,616.96 368.02,614.80 368.61,608.86 369.19,607.59 369.78,604.32 370.36,608.43 370.95,610.88 371.53,609.12 372.12,611.37 372.70,611.26 373.29,607.91 373.87,609.98 374.46,607.14 375.04,604.98 375.63,603.68 376.21,606.20 376.80,607.44 377.38,605.86 377.97,608.61 378.55,607.38 379.14,607.14 379.72,608.29 380.31,611.10 380.89,619.09 381.48,620.82 382.06,618.51 382.65,623.39 383.23,619.84 383.82,619.53 384.40,620.33 384.99,622.02 385.57,622.55 386.16,622.68 386.74,617.55 387.33,616.78 387.92,619.52 388.50,621.42 389.09,625.73 389.67,629.90 390.26,628.68 390.84,625.52 391.43,629.05 392.01,628.67 392.60,623.34 393.18,624.36 393.77,629.42 394.35,629.33 394.94,628.86 395.52,626.83 396.11,628.10 396.69,623.98 397.28,620.90 397.86,621.39 398.45,619.91 399.03,621.31 399.62,618.78 400.20,617.76 400.79,619.92 401.37,621.91 401.96,619.22 402.54,617.96 403.13,619.00 403.71,622.57 404.30,624.46 404.88,625.20 405.47,624.04 406.05,626.07 406.64,631.64 407.22,626.18 407.81,628.38 408.39,625.82 408.98,623.21 409.56,623.76 410.15,624.20 410.73,627.75 411.32,627.73 411.90,624.55 412.49,627.15 413.07,628.19 413.66,629.56 414.24,638.72 414.83,637.73 415.41,640.66 416.00,639.56 416.58,642.91 417.17,644.94 417.75,649.91 418.34,652.38 418.92,646.33 419.51,653.46 420.09,653.37 420.68,656.52 421.26,657.99 421.85,656.42 422.44,649.92 423.02,649.34 423.61,653.49 424.19,648.40 424.78,647.60 425.36,649.02 425.95,650.59 426.53,651.84 427.12,652.05 427.70,647.58 428.29,645.31 428.87,641.44 429.46,641.72 430.04,644.59 430.63,645.62 431.21,646.05 431.80,645.87 432.38,650.73 432.97,656.02 433.55,659.87 434.14,662.77 434.72,656.16 435.31,659.92 435.89,654.18 436.48,653.66 437.06,654.68 437.65,655.88 438.23,661.48 438.82,662.54 439.40,665.79 439.99,663.19 440.57,659.08 441.16,660.38 441.74,659.54 442.33,659.17 442.91,653.55 443.50,654.00 444.08,654.94 444.67,657.39 445.25,658.54 445.84,659.42 446.42,656.51 447.01,661.05 447.59,663.49 448.18,662.47 448.76,665.76 449.35,666.17 449.93,667.70 450.52,665.31 451.10,664.93 451.69,667.50 452.27,663.04 452.86,660.06 453.44,660.22 454.03,653.28 454.61,655.41 455.20,652.82 455.78,653.76 456.37,651.32 456.96,661.55 457.54,661.71 458.13,662.20 458.71,673.09 459.30,669.87 459.88,672.93 460.47,674.69 461.05,673.50 461.64,678.60 462.22,672.34 462.81,662.98 463.39,668.99 463.98,668.66 464.56,668.24 465.15,669.67 465.73,676.36 466.32,674.05 466.90,671.04 467.49,669.43 468.07,661.60 468.66,663.50 469.24,664.86 469.83,666.33 470.41,666.96 471.00,670.09 471.58,667.49 472.17,665.26 472.75,667.50 473.34,664.91 473.92,663.85 474.51,661.30 475.09,666.57 475.68,666.01 476.26,666.84 476.85,671.75 477.43,671.91 478.02,672.18 478.60,669.30 479.19,672.15 479.77,669.73 480.36,663.63 480.94,663.16 481.53,664.25 482.11,669.11 482.70,669.12 483.28,671.66 483.87,670.62 484.45,669.87 485.04,666.48 485.62,670.20 486.21,670.53 486.79,672.79 487.38,675.37 487.96,677.01 488.55,679.64 489.13,679.03 489.72,680.48 490.30,681.53 490.89,682.33 491.48,680.94 492.06,683.78 492.65,684.11 493.23,679.19 493.82,677.92 494.40,678.38 494.99,676.25 495.57,676.65 496.16,675.12 496.74,676.99 497.33,672.82 497.91,672.78 498.50,673.97 499.08,670.04 499.67,668.84 500.25,671.76 500.84,671.92 501.42,670.69 502.01,668.92 502.59,668.96 503.18,668.26 503.76,670.02 504.35,667.73 504.93,664.56 505.52,660.48 506.10,658.83 506.69,654.21 507.27,653.86 507.86,658.25 508.44,650.85 509.03,651.27 509.61,650.42 510.20,651.06 510.78,645.70 511.37,631.22 511.95,634.32 512.54,634.75 513.12,635.38 513.71,629.82 514.29,626.75 514.88,625.24 515.46,623.02 516.05,625.73 516.63,636.19 517.22,631.19 517.80,629.43 518.39,631.59 518.97,633.36 519.56,630.15 520.14,622.76 520.73,623.99 521.31,623.89 521.90,623.79 522.48,624.01 523.07,630.30 523.65,633.23 524.24,630.26 524.82,631.30 525.41,621.34 526.00,614.31 526.58,614.50 527.17,610.98 527.75,608.21 528.34,608.55 528.92,607.29 529.51,606.57 530.09,612.68 530.68,613.30 531.26,614.20 531.85,606.58 532.43,606.48 533.02,607.53 533.60,604.17 534.19,610.74 534.77,611.20 535.36,610.43 535.94,616.53 536.53,620.17 537.11,619.40 537.70,618.51 538.28,634.32 538.87,631.83 539.45,635.51 540.04,640.20 540.62,631.15 541.21,635.42 541.79,637.05 542.38,631.39 542.96,630.22 543.55,636.80 544.13,638.95 544.72,635.56 545.30,636.76 545.89,641.29 546.47,640.60 547.06,637.60 547.64,635.18 548.23,635.76 548.81,637.33 549.40,638.12 549.98,637.96 550.57,640.28 551.15,640.38 551.74,642.62 552.32,639.43 552.91,631.93 553.49,633.88 554.08,634.27 554.66,636.38 555.25,636.38 555.83,635.50 556.42,632.16 557.00,624.37 557.59,624.00 558.17,623.49 558.76,626.25 559.34,626.74 559.93,623.94 560.52,624.57 561.10,616.95 561.69,616.86 562.27,619.87 562.86,621.29 563.44,619.90 564.03,626.15 564.61,626.82 565.20,627.26 565.78,627.37 566.37,625.74 566.95,624.67 567.54,625.87 568.12,626.02 568.71,628.53 569.29,625.79 569.88,627.61 570.46,627.04 571.05,624.97 571.63,622.81 572.22,622.29 572.80,622.59 573.39,621.48 573.97,623.90 574.56,626.10 575.14,629.98 575.73,634.94 576.31,637.66 576.90,638.69 577.48,635.38 578.07,637.86 578.65,633.32 579.24,635.63 579.82,634.48 580.41,633.67 580.99,632.53 581.58,626.96 582.16,627.19 582.75,627.61 583.33,626.79 583.92,624.90 584.50,628.70 585.09,625.17 585.67,626.17 586.26,627.02 586.84,626.37 587.43,623.00 588.01,622.64 588.60,620.40 589.18,617.68 589.77,616.07 590.35,614.38 590.94,615.33 591.52,617.35 592.11,614.42 592.69,615.44 593.28,620.03 593.86,618.73 594.45,617.74 595.04,616.96 595.62,620.07 596.21,619.35 596.79,621.43 597.38,623.50 597.96,622.70 598.55,625.34 599.13,623.74 599.72,623.35 600.30,621.18 600.89,618.62 601.47,615.74 602.06,616.92 602.64,617.86 603.23,617.68 603.81,621.55 604.40,620.75 604.98,619.71 605.57,621.43 606.15,621.46 606.74,619.65 607.32,617.59 607.91,618.72 608.49,620.03 609.08,620.34 609.66,615.80 610.25,614.02 610.83,612.32 611.42,613.56 612.00,613.07 612.59,614.38 613.17,619.22 613.76,619.17 614.34,619.43 614.93,619.02 615.51,621.01 616.10,618.88 616.68,616.17 617.27,618.88 617.85,620.15 618.44,622.89 619.02,620.93 619.61,620.00 620.19,621.11 620.78,622.03 621.36,624.36 621.95,623.85 622.53,622.81 623.12,622.90 623.70,620.85 624.29,619.26 624.87,619.74 625.46,619.40 626.04,619.24 626.63,620.05 627.21,614.71 627.80,613.37 628.38,609.62 628.97,610.24 629.56,610.63 630.14,611.32 630.73,614.79 631.31,613.00 631.90,613.14 632.48,610.71 633.07,610.99 633.65,606.86 634.24,605.83 634.82,601.98 635.41,602.48 635.99,603.57 636.58,601.43 637.16,604.74 637.75,601.14 638.33,601.22 638.92,598.40 639.50,599.38 640.09,600.98 640.67,602.20 641.26,601.80 641.84,599.66 642.43,604.60 643.01,603.39 643.60,612.24 644.18,634.07 644.77,627.34 645.35,624.37 645.94,619.44 646.52,619.44 647.11,618.32 647.69,615.80 648.28,613.59 648.86,615.28 649.45,613.36 650.03,607.16 650.62,608.53 651.20,608.96 651.79,602.51 652.37,602.17 652.96,603.32 653.54,603.94 654.13,607.46 654.71,606.64 655.30,616.66 655.88,607.69 656.47,606.19 657.05,604.55 657.64,598.21 658.22,602.93 658.81,612.71 659.39,606.79 659.98,610.54 660.56,615.91 661.15,619.75 661.73,631.33 662.32,632.59 662.90,637.67 663.49,640.93 664.07,636.50 664.66,645.00 665.25,638.44 665.83,631.70 666.42,633.39 667.00,632.56 667.59,635.05 668.17,634.22 668.76,634.98 669.34,630.87 669.93,632.35 670.51,626.48 671.10,627.70 671.68,626.84 672.27,628.48 672.85,629.58 673.44,624.57 674.02,626.53 674.61,626.18 675.19,623.61 675.78,622.65 676.36,625.79 676.95,623.62 677.53,624.29 678.12,626.55 678.70,624.77 679.29,622.94 679.87,621.71 680.46,618.56 681.04,616.92 681.63,617.71 682.21,615.03 682.80,615.26 683.38,615.26 683.97,614.71 684.55,617.68 685.14,618.54 685.72,617.84 686.31,615.54 686.89,616.99 687.48,618.47 688.06,624.68 688.65,624.32 689.23,621.31 689.82,623.19 690.40,622.43 690.99,621.71 691.57,614.49 692.16,613.65 692.74,613.64 693.33,613.74 693.91,612.42 694.50,610.99 695.08,609.26 695.67,609.76 696.25,612.80 696.84,612.30 697.42,615.62 698.01,611.50 698.59,611.29 699.18,609.44 699.77,605.68 700.35,605.45 700.94,604.09 701.52,602.90 702.11,604.92 702.69,601.17 703.28,595.37 703.86,589.28 704.45,583.49 705.03,566.16 705.62,564.23 706.20,558.98 706.79,554.36 707.37,560.42 707.96,553.52 708.54,556.72 709.13,561.02 709.71,576.80 710.30,574.84 710.88,565.46 711.47,564.72 712.05,563.10 712.64,563.24 713.22,577.54 713.81,575.96 714.39,573.21 714.98,565.55 715.56,567.13 716.15,564.44 716.73,559.16 717.32,558.85 717.90,558.76 718.49,559.76 719.07,563.55 719.66,562.38 720.24,565.36 720.83,567.72 721.41,568.54 722.00,563.78 722.58,556.13 723.17,556.30 723.75,561.28 724.34,565.54 724.92,562.79 725.51,560.23 726.09,559.81 726.68,563.67 727.26,561.93 727.85,554.12 728.43,556.06 729.02,554.27 729.60,554.14 730.19,556.00 730.77,559.24 731.36,566.21 731.94,564.48 732.53,572.08 733.11,572.26 733.70,569.13 734.29,567.48 734.87,564.89 735.46,567.05 736.04,568.75 736.63,561.53 737.21,564.69 737.80,568.54 738.38,567.39 738.97,573.57 739.55,573.09 740.14,572.26 740.72,571.58 741.31,571.88 741.89,565.40 742.48,555.58 743.06,554.47 743.65,556.69 744.23,557.27 744.82,557.76 745.40,560.26 745.99,557.63 746.57,557.68 747.16,558.70 747.74,562.82 748.33,564.70 748.91,564.15 749.50,561.52 750.08,559.05 750.67,564.42 751.25,562.66 751.84,558.73 752.42,556.23 753.01,551.29 753.59,551.25 754.18,544.64 754.76,546.54 755.35,549.92 755.93,549.68 756.52,553.25 757.10,549.97 757.69,550.62 758.27,550.84 758.86,548.33 759.44,547.27 760.03,543.00 760.61,545.13 761.20,549.52 761.78,548.91 762.37,544.68 762.95,546.10 763.54,538.71 764.12,538.70 764.71,539.40 765.29,538.79 765.88,541.81 766.46,542.66 767.05,547.31 767.63,547.46 768.22,550.98 768.81,547.85 769.39,547.14 769.98,546.54 770.56,542.14 771.15,543.35 771.73,540.11 772.32,545.78 772.90,542.85 773.49,543.35 774.07,540.44 774.66,538.89 775.24,540.38 775.83,535.48 776.41,528.73 777.00,524.83 777.58,517.86 778.17,514.46 778.75,507.82 779.34,509.08 779.92,512.83 780.51,502.10 781.09,503.37 781.68,510.81 782.26,511.66 782.85,507.48 783.43,513.09 784.02,510.40 784.60,504.27 785.19,503.94 785.77,500.06 786.36,507.87 786.94,506.83 787.53,517.26 788.11,519.00 788.70,514.46 789.28,508.69 789.87,509.79 790.45,510.57 791.04,509.91 791.62,504.30 792.21,495.88 792.79,487.48 793.38,490.20 793.96,489.48 794.55,502.03 795.13,503.25 795.72,513.08 796.30,510.87 796.89,520.06 797.47,514.38 798.06,519.17 798.64,512.07 799.23,523.93 799.81,525.17 800.40,537.81 800.98,545.35 801.57,543.10 802.15,534.48 802.74,533.22 803.33,540.89 803.91,537.86 804.50,536.37 805.08,533.54 805.67,542.86 806.25,539.39 806.84,542.71 807.42,548.28 808.01,548.44 808.59,540.72 809.18,540.10 809.76,536.79 810.35,540.00 810.93,535.68 811.52,532.17 812.10,533.64 812.69,536.17 813.27,535.59 813.86,540.90 814.44,546.96 815.03,547.52 815.61,544.69 816.20,546.88 816.78,545.69 817.37,537.33 817.95,537.58 818.54,536.52 819.12,537.17 819.71,533.98 820.29,538.00 820.88,537.09 821.46,535.10 822.05,531.99 822.63,534.81 823.22,539.12 823.80,543.62 824.39,543.87 824.97,541.75 825.56,540.27 826.14,543.83 826.73,535.70 827.31,530.55 827.90,530.37 828.48,531.43 829.07,530.45 829.65,534.07 830.24,532.59 830.82,521.32 831.41,521.17 831.99,519.95 832.58,521.14 833.16,520.41 833.75,519.71 834.33,523.29 834.92,525.69 835.50,523.82 836.09,524.14 836.67,527.29 837.26,526.99 837.85,524.57 838.43,527.81 839.02,531.83 839.60,537.78 840.19,536.30 840.77,536.26 841.36,537.10 841.94,534.90 842.53,533.15 843.11,532.56 843.70,526.75 844.28,525.93 844.87,530.17 845.45,527.85 846.04,527.46 846.62,537.74 847.21,537.41 847.79,537.60 848.38,533.63 848.96,537.24 849.55,538.54 850.13,534.17 850.72,533.52 851.30,537.60 851.89,532.87 852.47,536.79 853.06,535.50 853.64,535.81 854.23,533.38 854.81,532.85 855.40,537.18 855.98,548.51 856.57,560.55 857.15,559.91 857.74,553.70 858.32,556.41 858.91,547.93 859.49,547.88 860.08,544.81 860.66,546.90 861.25,548.77 861.83,544.35 862.42,540.36 863.00,542.29 863.59,545.19 864.17,547.08 864.76,547.42 865.34,554.59 865.93,550.66 866.51,552.88 867.10,559.31 867.68,554.70 868.27,551.07 868.85,550.39 869.44,557.07 870.02,555.31 870.61,556.26 871.19,556.79 871.78,552.38 872.37,552.38 872.95,554.20 873.54,547.93 874.12,543.84 874.71,545.27 875.29,545.42 875.88,542.41 876.46,543.92 877.05,549.08 877.63,552.52 878.22,556.65 878.80,553.31 879.39,555.67 879.97,553.50 880.56,553.76 881.14,551.83 881.73,551.38 882.31,554.83 882.90,552.59 883.48,548.19 884.07,547.76 884.65,551.38 885.24,547.49 885.82,549.32 886.41,548.04 886.99,552.01 887.58,548.69 888.16,549.56 888.75,548.33 889.33,546.13 889.92,544.76 890.50,545.90 891.09,550.39 891.67,552.74 892.26,549.66 892.84,550.91 893.43,554.42 894.01,555.72 894.60,552.43 895.18,554.25 895.77,553.85 896.35,553.95 896.94,555.71 897.52,550.36 898.11,551.07 898.69,551.48 899.28,551.42 899.86,551.25 900.45,554.58 901.03,550.95 901.62,549.41 902.20,549.34 902.79,549.11 903.37,550.51 903.96,553.02 904.54,553.62 905.13,554.96 905.71,554.15 906.30,553.30 906.89,550.19 907.47,550.77 908.06,548.73 908.64,543.63 909.23,537.90 909.81,539.53 910.40,537.55 910.98,539.91 911.57,542.94 912.15,540.94 912.74,546.48 913.32,551.62 913.91,549.33 914.49,549.26 915.08,546.89 915.66,548.79 916.25,548.93 916.83,546.39 917.42,551.41 918.00,548.78 918.59,547.47 919.17,549.03 919.76,552.47 920.34,555.92 920.93,555.63 921.51,554.13 922.10,557.33 922.68,554.03 923.27,559.54 923.85,562.25 924.44,559.44 925.02,556.26 925.61,558.54 926.19,555.55 926.78,558.61 927.36,558.10 927.95,565.59 928.53,563.24 929.12,569.64 929.70,573.52 930.29,568.65 930.87,570.41 931.46,567.41 932.04,568.26 932.63,570.92 933.21,574.35 933.80,571.01 934.38,569.77 934.97,569.00 935.55,567.47 936.14,568.64 936.72,572.80 937.31,569.42 937.89,575.90 938.48,572.85 939.06,572.28 939.65,569.65 940.23,572.49 940.82,574.36 941.41,578.18 941.99,588.11 942.58,594.16 943.16,596.86 943.75,592.26 944.33,591.31 944.92,600.42 945.50,613.63 946.09,601.72 946.67,596.07 947.26,594.12 947.84,594.61 948.43,594.85 949.01,593.39 949.60,595.13 950.18,600.44 950.77,602.24 951.35,603.23 951.94,594.94 952.52,597.11 953.11,593.41 953.69,594.26 954.28,598.05 954.86,596.55 955.45,605.59 956.03,600.06 956.62,602.85 957.20,599.26 957.79,599.46 958.37,601.00 958.96,603.18 959.54,607.61 960.13,612.80 960.71,611.59 961.30,625.31 961.88,627.44 962.47,619.74 963.05,617.97 963.64,611.39 964.22,611.80 964.81,618.82 965.39,620.99 965.98,618.05 966.56,614.14 967.15,615.36 967.73,613.30 968.32,615.52 968.90,612.10 969.49,613.07 970.07,612.54 970.66,607.14 971.24,608.78 971.83,615.34 972.41,613.67 973.00,612.99 973.58,612.42 974.17,610.50 974.75,606.18 975.34,606.76 975.93,606.32 976.51,601.02 977.10,600.12 977.68,597.31 978.27,600.36 978.85,595.98 979.44,599.41 980.02,597.13 980.61,593.27 981.19,595.22 981.78,591.14 982.36,589.66 982.95,589.99 983.53,593.79 984.12,588.73 984.70,585.21 985.29,581.78 985.87,578.58 986.46,583.37 987.04,578.97 987.63,580.23 988.21,578.20 988.80,578.65 989.38,583.19 989.97,581.84 990.55,582.85 991.14,587.98 991.72,590.82 992.31,590.28 992.89,590.24 993.48,595.32 994.06,592.27 994.65,593.88 995.23,592.88 995.82,596.18 996.40,596.03 996.99,597.80 997.57,595.50 998.16,596.95 998.74,596.90 999.33,600.75 999.91,599.46 1000.50,605.11 1001.08,607.88 1001.67,605.49 1002.25,601.66 1002.84,602.27 1003.42,601.70 1004.01,604.92 1004.59,599.12 1005.18,599.29 1005.76,599.67 1006.35,600.21 1006.93,597.50 1007.52,600.05 1008.10,602.06 1008.69,599.96 1009.27,601.37 1009.86,606.81 1010.44,604.47 1011.03,605.07 1011.62,606.32 1012.20,607.27 1012.79,607.06 1013.37,609.49 1013.96,610.88 1014.54,611.44 1015.13,608.89 1015.71,608.71 1016.30,609.90 1016.88,606.02 1017.47,604.83 1018.05,607.99 1018.64,610.64 1019.22,617.17 1019.81,617.49 1020.39,617.16 1020.98,619.17 1021.56,621.55 1022.15,622.47 1022.73,623.81 1023.32,619.96 1023.90,624.36 1024.49,624.47 1025.07,626.01 1025.66,631.81 1026.24,631.34 1026.83,627.43 1027.41,629.62 1028.00,623.41 1028.58,623.13 1029.17,623.70 1029.75,627.97 1030.34,629.46 1030.92,630.29 1031.51,637.87 1032.09,638.28 1032.68,636.24 1033.26,638.02 1033.85,644.23 1034.43,646.49 1035.02,637.81 1035.60,634.79 1036.19,636.86 1036.77,628.61 1037.36,628.05 1037.94,629.85 1038.53,632.27 1039.11,634.25 1039.70,627.14 1040.28,626.76 1040.87,621.78 1041.45,623.97 1042.04,625.05 1042.62,626.24 1043.21,628.48 1043.79,628.45 1044.38,628.17 1044.96,629.33 1045.55,628.02 1046.14,630.96 1046.72,622.99 1047.31,622.68 1047.89,619.79 1048.48,621.44 1049.06,616.18 1049.65,614.71 1050.23,615.39 1050.82,615.33 1051.40,612.63 1051.99,615.73 1052.57,616.27 1053.16,615.63 1053.74,615.83 1054.33,615.68 1054.91,619.90 1055.50,624.34 1056.08,624.23 1056.67,623.85 1057.25,624.39 1057.84,623.34 1058.42,620.27 1059.01,621.41 1059.59,622.42 1060.18,621.39 1060.76,620.26 1061.35,619.91 1061.93,614.68 1062.52,613.83 1063.10,611.60 1063.69,611.30 1064.27,611.82 1064.86,611.27 1065.44,607.37 1066.03,602.97 1066.61,603.02 1067.20,603.50 1067.78,601.72 1068.37,599.96 1068.95,598.58 1069.54,601.66 1070.12,598.96 1070.71,599.98 1071.29,602.72 1071.88,606.50 1072.46,605.99 1073.05,607.24 1073.63,603.46 1074.22,605.16 1074.80,602.58 1075.39,602.46 1075.97,603.96 1076.56,606.04 1077.14,610.12 1077.73,603.28 1078.31,602.53 1078.90,605.11 1079.48,605.34 1080.07,608.29 1080.66,609.48 1081.24,607.71 1081.83,603.73 1082.41,604.37 1083.00,603.48 1083.58,604.97 1084.17,609.13 1084.75,610.15 1085.34,611.14 1085.92,614.78 1086.51,611.91 1087.09,613.57 1087.68,613.42 1088.26,616.72 1088.85,615.36 1089.43,616.72 1090.02,613.73 1090.60,612.55 1091.19,609.81 1091.77,610.64 1092.36,611.65 1092.94,612.54 1093.53,612.09 1094.11,609.85 1094.70,608.99 1095.28,606.25 1095.87,605.38 1096.45,605.83 1097.04,603.98 1097.62,605.26 1098.21,605.58 1098.79,605.78 1099.38,607.74 1099.96,606.15 1100.55,602.18 1101.13,601.30 1101.72,603.90 1102.30,604.69 1102.89,610.26 1103.47,613.71 1104.06,615.09 1104.64,615.33 1105.23,613.31 1105.81,610.50 1106.40,610.42 1106.98,611.34 1107.57,608.18 1108.15,610.58 1108.74,612.73 1109.32,613.16 1109.91,616.82 1110.49,612.59 1111.08,614.02 1111.66,615.27 1112.25,615.55 1112.83,616.35 1113.42,614.63 1114.00,618.51 1114.59,622.26 1115.18,622.85 1115.76,622.82 1116.35,624.00 1116.93,623.73 1117.52,626.44 1118.10,625.87 1118.69,622.07 1119.27,623.28 1119.86,625.78 1120.44,627.08 1121.03,624.95 1121.61,623.81 1122.20,623.27 1122.78,621.85 1123.37,621.92 1123.95,617.66 1124.54,615.05 1125.12,617.29 1125.71,617.75 1126.29,621.92 1126.88,625.67 1127.46,623.20 1128.05,623.52 1128.63,624.83 1129.22,623.41 1129.80,619.92 1130.39,619.50 1130.97,621.58 1131.56,623.39 1132.14,624.57 1132.73,623.28 1133.31,621.54 1133.90,623.34 1134.48,619.54 1135.07,619.49 1135.65,621.70 1136.24,622.54 1136.82,622.83 1137.41,624.71 1137.99,624.83 1138.58,625.98 1139.16,618.38 1139.75,618.94 1140.33,619.26 1140.92,613.01 1141.50,611.50 1142.09,612.65 1142.67,614.59 1143.26,612.17 1143.84,611.09 1144.43,613.19 1145.01,613.91 1145.60,614.75 1146.18,614.19 1146.77,620.52 1147.35,622.48 1147.94,623.12 1148.52,625.08 1149.11,624.19 1149.70,627.45 1150.28,631.22 1150.87,629.23 1151.45,633.49 1152.04,631.64 1152.62,632.63 1153.21,629.62 1153.79,627.03 1154.38,627.14 1154.96,628.75 1155.55,626.93 1156.13,622.96 1156.72,624.94 1157.30,625.51 1157.89,629.22 1158.47,630.49 1159.06,628.59 1159.64,629.07 1160.23,630.73 1160.81,630.94 1161.40,632.65 1161.98,631.34 1162.57,631.84 1163.15,632.87 1163.74,635.17 1164.32,630.57 1164.91,632.25 1165.49,633.75 1166.08,633.23 1166.66,633.98 1167.25,634.32 1167.83,636.23 1168.42,635.50 1169.00,633.10 1169.59,635.79 1170.17,638.34 1170.76,637.45 1171.34,639.44 1171.93,644.77 1172.51,646.36 1173.10,648.87 1173.68,647.98 1174.27,646.78 1174.85,646.11 1175.44,642.78 1176.02,641.30 1176.61,642.08 1177.19,642.18 1177.78,643.34 1178.36,641.27 1178.95,637.92 1179.53,638.81 1180.12,639.41 1180.70,639.29 1181.29,641.11 1181.87,641.60 1182.46,641.42 1183.04,639.67 1183.63,642.09 1184.22,642.38 1184.80,641.81 1185.39,641.49 1185.97,644.02 1186.56,642.84 1187.14,644.46 1187.73,646.27 1188.31,645.81 1188.90,647.90 1189.48,647.36 1190.07,648.28 1190.65,649.85 1191.24,654.41 1191.82,654.04 1192.41,654.61 1192.99,654.05 1193.58,652.66 1194.16,652.16 1194.75,656.11 1195.33,657.33 1195.92,658.05 1196.50,658.89 1197.09,658.57 1197.67,661.10 1198.26,658.79 1198.84,658.35 1199.43,657.64 1200.01,659.21 1200.60,658.41 1201.18,653.00 1201.77,651.86 1202.35,654.95 1202.94,655.51 1203.52,657.67 1204.11,658.91 1204.69,661.89 1205.28,661.44 1205.86,662.51 1206.45,661.23 1207.03,662.02 1207.62,662.25 1208.20,660.86 1208.79,665.83 1209.37,662.67 1209.96,663.02 1210.54,666.53 1211.13,665.63 1211.71,662.51 1212.30,657.96 1212.88,658.59 1213.47,660.65 1214.05,664.73 1214.64,666.78 1215.22,666.62 1215.81,669.25 1216.39,667.81 1216.98,660.12 1217.56,657.91 1218.15,656.43 1218.74,653.75 1219.32,653.26 1219.91,650.08 1220.49,648.01 1221.08,647.80 1221.66,650.32 1222.25,647.45 1222.83,650.53 1223.42,645.98 1224.00,644.48 1224.59,644.27 1225.17,642.56 1225.76,643.56 1226.34,645.04 1226.93,643.99 1227.51,640.92 1228.10,640.35 1228.68,642.09 1229.27,642.79 1229.85,642.25 1230.44,639.93 1231.02,641.72 1231.61,641.19 1232.19,641.48 1232.78,643.98 1233.36,645.31 1233.95,644.07 1234.53,646.90 1235.12,645.64 1235.70,644.50 1236.29,640.48 1236.87,641.51 1237.46,642.40 1238.04,644.57 1238.63,644.78 1239.21,646.77 1239.80,646.80 1240.38,648.76 1240.97,643.70 1241.55,646.32 1242.14,642.57 1242.72,642.27 1243.31,644.21 1243.89,644.96 1244.48,646.66 1245.06,645.60 1245.65,645.00 1246.23,641.26 1246.82,638.52 1247.40,639.87 1247.99,636.17 1248.57,636.10 1249.16,638.09 1249.74,635.71 1250.33,635.59 1250.91,635.70 1251.50,636.23 1252.08,638.37 1252.67,637.38 1253.26,634.78 1253.84,633.89 1254.43,634.91 1255.01,634.34 1255.60,637.29 1256.18,640.07 1256.77,637.71 1257.35,639.54 1257.94,639.24 1258.52,640.57 1259.11,641.57 1259.69,640.95 1260.28,639.09 1260.86,640.54 1261.45,640.71 1262.03,641.97 1262.62,644.13 1263.20,644.04 1263.79,645.29 1264.37,644.22 1264.96,644.59 1265.54,643.94 1266.13,645.10 1266.71,646.87 1267.30,647.40 1267.88,648.70 1268.47,650.00 1269.05,648.46 1269.64,650.27 1270.22,649.74 1270.81,648.60 1271.39,649.04 1271.98,649.62 1272.56,650.84 1273.15,651.86 1273.73,653.89 1274.32,651.26 1274.90,652.01 1275.49,649.29 1276.07,649.00 1276.66,648.74 1277.24,647.21 1277.83,646.98 1278.41,645.65 1279.00,644.39 1279.58,646.06 1280.17,651.25 1280.75,652.75 1281.34,654.06 1281.92,653.37 1282.51,654.65 1283.09,656.13 1283.68,651.10 1284.26,652.68 1284.85,655.09 1285.43,657.93 1286.02,657.95 1286.60,658.06 1287.19,657.96 1287.78,658.74 1288.36,659.14 1288.95,658.55 1289.53,660.29 1290.12,658.02 1290.70,657.77 1291.29,656.99 1291.87,658.66 1292.46,659.43 1293.04,660.02 1293.63,659.05 1294.21,659.25 1294.80,660.56 1295.38,661.86 1295.97,662.47 1296.55,659.44 1297.14,663.35 1297.72,662.76 1298.31,664.23 1298.89,663.85 1299.48,665.67 1300.06,668.33 1300.65,668.14 1301.23,668.80 1301.82,669.75 1302.40,670.66 1302.99,669.85 1303.57,668.12 1304.16,667.77 1304.74,666.96 1305.33,657.34 1305.91,653.90 1306.50,643.96 1307.08,633.01 1307.67,611.28 1308.25,594.80 1308.84,615.56 1309.42,612.66 1310.01,620.31 1310.59,615.18 1311.18,622.47 1311.76,624.16 1312.35,627.16 1312.93,617.68 1313.52,616.99 1314.10,615.43 1314.69,614.36 1315.27,617.43 1315.86,615.52 1316.44,614.99 1317.03,617.72 1317.61,620.16 1318.20,620.05 1318.78,620.12 1319.37,616.33 1319.95,609.43 1320.54,610.83 1321.12,602.43 1321.71,605.31 1322.30,603.44 1322.88,606.58 1323.47,604.84 1324.05,609.77 1324.64,614.67 1325.22,615.94 1325.81,614.11 1326.39,613.50 1326.98,613.25 1327.56,621.80 1328.15,623.02 1328.73,623.56 1329.32,618.94 1329.90,621.33 1330.49,618.28 1331.07,616.13 1331.66,615.84 1332.24,617.31 1332.83,617.93 1333.41,614.37 1334.00,614.82 1334.58,612.81 1335.17,613.28 1335.75,610.54 1336.34,617.13 1336.92,618.61 1337.51,617.90 1338.09,616.53 1338.68,616.28 1339.26,617.51 1339.85,617.11 1340.43,613.64 1341.02,613.50 1341.60,613.38 1342.19,613.82 1342.77,612.58 1343.36,617.01 1343.94,624.93 1344.53,628.06 1345.11,628.49 1345.70,626.61 1346.28,627.09 1346.87,627.74 1347.45,631.01 1348.04,631.70 1348.62,624.92 1349.21,626.62 1349.79,626.32 1350.38,625.49 1350.96,624.29 1351.55,624.09 1352.13,626.55 1352.72,626.08 1353.30,624.07 1353.89,625.16 1354.47,626.68 1355.06,623.38 1355.64,619.93 1356.23,619.35 1356.81,620.59 1357.40,618.05 1357.99,619.07 1358.57,616.73 1359.16,616.15 1359.74,618.54 1360.33,616.65 1360.91,617.43 1361.50,614.00 1362.08,614.61 1362.67,617.65 1363.25,615.28 1363.84,614.72 1364.42,620.12 1365.01,620.22 1365.59,620.45 1366.18,619.25 1366.76,615.54 1367.35,616.38 1367.93,617.44 1368.52,616.56 1369.10,617.54 1369.69,618.63 1370.27,612.06 1370.86,612.73 1371.44,611.98 1372.03,611.81 1372.61,614.24 1373.20,618.41 1373.78,617.02 1374.37,617.19 1374.95,618.09 1375.54,617.19 1376.12,618.38 1376.71,620.30 1377.29,620.28 1377.88,620.51 1378.46,622.09 1379.05,640.91 1379.63,636.67 1380.22,634.17 1380.80,630.83 1381.39,629.77 1381.97,629.17 1382.56,629.03 1383.14,628.22 1383.73,628.26 1384.31,628.24 1384.90,627.39 1385.48,627.45 1386.07,627.25 1386.65,627.43 1387.24,627.24 1387.82,627.61 1388.41,628.07 1388.99,628.38 1389.58,625.75 1390.16,624.16 1390.75,622.68 1391.33,623.15 1391.92,620.08 1392.51,619.69 1393.09,616.44 1393.68,618.93 1394.26,620.18 1394.85,621.01 1395.43,619.55 1396.02,618.29 1396.60,618.47 1397.19,620.65 1397.77,622.19 1398.36,623.62 1398.94,623.84 1399.53,622.28 1400.11,623.56 1400.70,622.75 1401.28,621.59 1401.87,620.98 1402.45,621.23 1403.04,620.45 1403.62,621.82 1404.21,619.80 1404.79,619.97 1405.38,621.90 1405.96,621.24 1406.55,621.48 1407.13,621.16 1407.72,623.36 1408.30,623.12 1408.89,622.34 1409.47,619.15 1410.06,615.27 1410.64,616.24 1411.23,617.92 1411.81,616.93 1412.40,616.47 1412.98,616.41 1413.57,614.72 1414.15,613.74 1414.74,614.92 1415.32,612.62 1415.91,613.11 1416.49,611.82 1417.08,611.49 1417.66,611.29 1418.25,611.19 1418.83,612.01 1419.42,610.13 1420.00,608.46 1420.59,606.59 1421.17,604.28 1421.76,604.23 1422.34,602.20 1422.93,603.72 1423.51,603.12 1424.10,602.00 1424.68,602.05 1425.27,607.28 1425.85,608.71 1426.44,607.62 1427.03,605.36 1427.61,604.66 1428.20,604.58 1428.78,605.25 1429.37,604.04 1429.95,602.56 1430.54,600.30 1431.12,600.52 1431.71,598.52 1432.29,595.95 1432.88,597.06 1433.46,593.74 1434.05,592.59 1434.63,586.37 1435.22,580.06 1435.80,581.21 1436.39,585.80 1436.97,580.43 1437.56,578.15 1438.14,576.29 1438.73,578.59 1439.31,580.71 1439.90,587.25 1440.48,580.67 1441.07,580.17 1441.65,582.34 1442.24,581.71 1442.82,574.61 1443.41,576.41 1443.99,575.64 1444.58,576.31 1445.16,574.40 1445.75,578.06 1446.33,577.80 1446.92,576.37 1447.50,576.56 1448.09,573.36 1448.67,571.46 1449.26,574.47 1449.84,569.63 1450.43,568.20 1451.01,563.44 1451.60,569.85 1452.18,571.43 1452.77,575.23 1453.35,570.58 1453.94,569.74 1454.52,576.94 1455.11,575.29 1455.69,570.47 1456.28,571.53 1456.86,570.57 1457.45,566.82 1458.03,562.99 1458.62,564.65 1459.20,560.79 1459.79,563.41 1460.37,568.20 1460.96,567.32 1461.55,569.72 1462.13,569.13 1462.72,564.55 1463.30,565.56 1463.89,564.44 1464.47,567.40 1465.06,567.84 1465.64,563.95 1466.23,569.07 1466.81,571.15 1467.40,573.21 1467.98,571.82 1468.57,573.44 1469.15,581.14 1469.74,581.52 1470.32,578.59 1470.91,576.71 1471.49,576.86 1472.08,576.08 1472.66,572.64 1473.25,574.17 1473.83,575.78 1474.42,574.71 1475.00,572.08 1475.59,569.51 1476.17,571.14 1476.76,571.58 1477.34,574.32 1477.93,572.33 1478.51,574.33 1479.10,578.10 1479.68,572.40 1480.27,574.28 1480.85,573.21 1481.44,570.21 1482.02,569.58 1482.61,568.66 1483.19,568.07 1483.78,567.05 1484.36,568.29 1484.95,567.47 1485.53,568.94 1486.12,562.87 1486.70,557.82 1487.29,558.79 1487.87,561.49 1488.46,560.02 1489.04,557.88 1489.63,559.87 1490.21,561.20 1490.80,560.54 1491.38,561.89 1491.97,561.71 1492.55,562.79 1493.14,562.50 1493.72,562.46 1494.31,563.92 1494.89,563.61 1495.48,563.70 1496.07,562.85 1496.65,560.37 1497.24,563.66 1497.82,570.60 1498.41,566.85 1498.99,564.19 1499.58,566.14 1500.16,568.00 1500.75,562.78 1501.33,562.42 1501.92,563.14 1502.50,562.74 1503.09,566.83 1503.67,563.57 1504.26,561.61 1504.84,562.24 1505.43,563.36 1506.01,562.11 1506.60,567.15 1507.18,570.83 1507.77,567.71 1508.35,566.83 1508.94,569.94 1509.52,565.84 1510.11,563.78 1510.69,564.96 1511.28,566.23 1511.86,566.06 1512.45,568.42 1513.03,566.98 1513.62,572.17 1514.20,573.29 1514.79,583.60 1515.37,579.68 1515.96,575.34 1516.54,579.48 1517.13,577.75 1517.71,578.49 1518.30,581.38 1518.88,576.13 1519.47,579.39 1520.05,582.02 1520.64,582.04 1521.22,571.32 1521.81,573.35 1522.39,568.48 1522.98,567.82 1523.56,564.01 1524.15,565.12 1524.73,561.56 1525.32,562.11 1525.90,560.12 1526.49,559.39 1527.07,557.21 1527.66,558.13 1528.24,559.30 1528.83,559.19 1529.41,560.07 1530.00,556.46" stroke="#b8871a" stroke-width="4"/>
<polyline class="series" points="110.00,670.83 110.59,661.47 111.17,665.13 111.76,664.40 112.34,670.44 112.93,671.89 113.51,672.99 114.10,665.32 114.68,666.06 115.27,664.26 115.85,660.18 116.44,664.53 117.02,667.54 117.61,669.01 118.19,667.22 118.78,666.05 119.36,669.76 119.95,672.28 120.53,668.25 121.12,672.07 121.70,674.32 122.29,659.46 122.87,658.01 123.46,654.61 124.04,650.79 124.63,651.12 125.21,650.16 125.80,651.96 126.38,667.27 126.97,665.43 127.55,657.02 128.14,656.73 128.72,655.89 129.31,656.81 129.89,658.92 130.48,653.81 131.06,655.81 131.65,655.88 132.23,650.22 132.82,647.32 133.40,648.80 133.99,650.52 134.57,650.69 135.16,643.54 135.74,644.62 136.33,639.94 136.91,640.19 137.50,642.83 138.08,639.84 138.67,633.88 139.25,634.79 139.84,635.21 140.42,634.95 141.01,631.45 141.59,633.11 142.18,634.03 142.76,632.71 143.35,627.66 143.93,626.20 144.52,624.17 145.11,627.87 145.69,628.01 146.28,632.32 146.86,638.16 147.45,636.17 148.03,635.00 148.62,635.32 149.20,636.95 149.79,637.31 150.37,633.73 150.96,632.07 151.54,635.50 152.13,631.21 152.71,622.89 153.30,625.90 153.88,623.36 154.47,624.60 155.05,620.34 155.64,626.81 156.22,629.45 156.81,632.50 157.39,637.99 157.98,639.43 158.56,637.84 159.15,635.10 159.73,635.61 160.32,637.09 160.90,637.61 161.49,634.35 162.07,632.21 162.66,633.40 163.24,632.19 163.83,635.19 164.41,643.22 165.00,639.11 165.58,641.22 166.17,638.69 166.75,639.60 167.34,640.66 167.92,637.28 168.51,637.90 169.09,646.49 169.68,644.03 170.26,647.09 170.85,645.63 171.43,645.52 172.02,640.79 172.60,641.26 173.19,640.60 173.77,641.16 174.36,640.97 174.94,645.16 175.53,640.90 176.11,638.76 176.70,641.19 177.28,641.20 177.87,638.45 178.45,640.53 179.04,642.24 179.63,641.61 180.21,642.38 180.80,642.04 181.38,639.01 181.97,639.69 182.55,633.60 183.14,635.77 183.72,635.92 184.31,635.79 184.89,636.85 185.48,633.87 186.06,624.15 186.65,622.05 187.23,625.36 187.82,624.04 188.40,623.92 188.99,628.29 189.57,625.48 190.16,623.78 190.74,625.39 191.33,622.80 191.91,619.11 192.50,616.14 193.08,611.52 193.67,612.03 194.25,611.23 194.84,615.60 195.42,622.33 196.01,625.02 196.59,622.56 197.18,623.79 197.76,621.43 198.35,628.34 198.93,627.24 199.52,632.04 200.10,634.22 200.69,636.39 201.27,637.75 201.86,638.61 202.44,632.92 203.03,630.90 203.61,631.43 204.20,628.08 204.78,631.29 205.37,633.70 205.95,636.41 206.54,640.30 207.12,636.38 207.71,634.84 208.29,632.88 208.88,634.84 209.46,631.15 210.05,633.67 210.63,638.16 211.22,639.65 211.80,641.98 212.39,643.80 212.97,642.27 213.56,642.04 214.15,644.73 214.73,642.88 215.32,641.03 215.90,640.23 216.49,639.46 217.07,639.08 217.66,643.17 218.24,643.63 218.83,643.72 219.41,643.12 220.00,642.24 220.58,639.19 221.17,638.77 221.75,635.84 222.34,638.38 222.92,638.04 223.51,642.56 224.09,638.64 224.68,637.17 225.26,636.02 225.85,639.02 226.43,639.91 227.02,641.96 227.60,639.99 228.19,637.73 228.77,640.32 229.36,642.46 229.94,641.88 230.53,645.08 231.11,645.43 231.70,646.19 232.28,644.51 232.87,641.04 233.45,642.33 234.04,641.20 234.62,639.75 235.21,641.99 235.79,641.30 236.38,637.89 236.96,634.85 237.55,634.56 238.13,632.90 238.72,636.54 239.30,638.41 239.89,638.34 240.47,642.02 241.06,639.83 241.64,635.61 242.23,634.78 242.81,636.21 243.40,627.77 243.98,621.68 244.57,629.40 245.15,624.57 245.74,627.83 246.32,627.67 246.91,630.09 247.49,630.52 248.08,630.78 248.67,631.27 249.25,638.85 249.84,636.95 250.42,632.32 251.01,633.92 251.59,631.95 252.18,629.40 252.76,633.77 253.35,632.23 253.93,634.33 254.52,644.55 255.10,643.96 255.69,645.51 256.27,641.46 256.86,639.50 257.44,638.90 258.03,632.82 258.61,636.00 259.20,637.13 259.78,635.85 260.37,635.03 260.95,636.59 261.54,635.82 262.12,633.57 262.71,633.66 263.29,635.19 263.88,633.34 264.46,634.57 265.05,635.54 265.63,632.80 266.22,628.05 266.80,624.19 267.39,620.97 267.97,619.41 268.56,620.15 269.14,625.98 269.73,628.03 270.31,628.29 270.90,624.36 271.48,624.25 272.07,616.81 272.65,616.15 273.24,612.15 273.82,606.84 274.41,605.71 274.99,606.68 275.58,603.78 276.16,604.61 276.75,606.64 277.33,610.26 277.92,604.65 278.50,603.73 279.09,602.72 279.67,602.61 280.26,604.29 280.84,603.62 281.43,601.49 282.01,598.65 282.60,598.46 283.19,599.50 283.77,591.62 284.36,587.68 284.94,587.51 285.53,589.66 286.11,591.12 286.70,592.33 287.28,596.75 287.87,590.78 288.45,582.70 289.04,580.57 289.62,578.44 290.21,580.66 290.79,584.78 291.38,578.80 291.96,579.20 292.55,573.69 293.13,581.01 293.72,595.59 294.30,587.97 294.89,587.19 295.47,589.10 296.06,584.00 296.64,587.29 297.23,583.88 297.81,584.26 298.40,589.45 298.98,591.52 299.57,583.15 300.15,578.13 300.74,579.69 301.32,576.85 301.91,575.73 302.49,570.89 303.08,570.13 303.66,570.91 304.25,568.87 304.83,573.76 305.42,575.27 306.00,570.04 306.59,573.94 307.17,570.18 307.76,570.73 308.34,570.86 308.93,569.59 309.51,571.39 310.10,568.08 310.68,571.99 311.27,574.95 311.85,576.62 312.44,570.74 313.02,566.51 313.61,562.15 314.19,562.01 314.78,552.24 315.36,556.67 315.95,558.08 316.53,555.06 317.12,554.63 317.70,555.82 318.29,553.77 318.88,548.93 319.46,552.42 320.05,555.32 320.63,553.22 321.22,555.02 321.80,549.51 322.39,548.43 322.97,545.01 323.56,539.44 324.14,537.42 324.73,541.30 325.31,541.61 325.90,540.68 326.48,531.08 327.07,532.54 327.65,536.82 328.24,528.77 328.82,522.51 329.41,521.45 329.99,527.19 330.58,529.35 331.16,518.19 331.75,517.70 332.33,508.12 332.92,500.48 333.50,499.22 334.09,516.21 334.67,519.25 335.26,531.58 335.84,525.97 336.43,527.22 337.01,531.86 337.60,531.38 338.18,526.73 338.77,526.80 339.35,527.45 339.94,535.85 340.52,530.76 341.11,519.54 341.69,525.93 342.28,520.49 342.86,521.22 343.45,528.25 344.03,530.94 344.62,524.10 345.20,520.48 345.79,514.07 346.37,515.60 346.96,518.42 347.54,518.38 348.13,526.47 348.71,519.60 349.30,519.86 349.88,512.71 350.47,512.44 351.05,507.91 351.64,505.92 352.22,500.97 352.81,496.59 353.40,492.28 353.98,493.51 354.57,491.90 355.15,486.26 355.74,481.88 356.32,484.36 356.91,482.07 357.49,482.09 358.08,477.88 358.66,471.13 359.25,467.77 359.83,474.23 360.42,472.48 361.00,478.27 361.59,487.38 362.17,481.42 362.76,481.34 363.34,476.16 363.93,474.16 364.51,487.08 365.10,501.38 365.68,512.71 366.27,530.47 366.85,528.68 367.44,522.79 368.02,519.96 368.61,510.46 369.19,508.54 369.78,505.75 370.36,514.19 370.95,516.63 371.53,510.47 372.12,513.39 372.70,511.17 373.29,508.41 373.87,510.35 374.46,507.60 375.04,504.27 375.63,501.11 376.21,504.78 376.80,509.33 377.38,503.85 377.97,508.78 378.55,506.69 379.14,508.17 379.72,513.13 380.31,519.50 380.89,533.36 381.48,534.05 382.06,530.58 382.65,540.84 383.23,536.25 383.82,536.31 384.40,532.89 384.99,533.03 385.57,540.39 386.16,539.41 386.74,537.20 387.33,540.03 387.92,544.99 388.50,544.33 389.09,544.69 389.67,555.14 390.26,554.20 390.84,553.42 391.43,563.16 392.01,560.79 392.60,548.92 393.18,550.63 393.77,561.22 394.35,561.04 394.94,553.75 395.52,546.26 396.11,547.72 396.69,538.23 397.28,533.15 397.86,534.21 398.45,533.80 399.03,537.56 399.62,530.42 400.20,529.34 400.79,530.24 401.37,535.28 401.96,530.20 402.54,531.82 403.13,535.16 403.71,541.68 404.30,545.04 404.88,544.75 405.47,537.49 406.05,549.41 406.64,557.09 407.22,543.72 407.81,551.69 408.39,544.14 408.98,540.14 409.56,541.94 410.15,545.22 410.73,547.45 411.32,546.24 411.90,540.30 412.49,543.19 413.07,545.43 413.66,547.59 414.24,562.86 414.83,559.28 415.41,559.53 416.00,558.86 416.58,561.89 417.17,566.11 417.75,579.61 418.34,584.15 418.92,573.34 419.51,585.57 420.09,591.31 420.68,599.44 421.26,597.80 421.85,589.98 422.44,579.65 423.02,581.26 423.61,586.25 424.19,580.88 424.78,577.26 425.36,577.07 425.95,582.54 426.53,585.03 427.12,585.86 427.70,582.77 428.29,582.61 428.87,574.65 429.46,577.79 430.04,581.65 430.63,583.11 431.21,585.18 431.80,585.60 432.38,594.54 432.97,602.92 433.55,610.65 434.14,609.93 434.72,602.62 435.31,613.84 435.89,609.44 436.48,608.32 437.06,604.97 437.65,608.85 438.23,615.06 438.82,614.71 439.40,621.14 439.99,611.90 440.57,611.82 441.16,615.14 441.74,611.41 442.33,613.38 442.91,604.79 443.50,605.50 444.08,607.03 444.67,611.71 445.25,614.17 445.84,615.79 446.42,610.83 447.01,616.73 447.59,618.40 448.18,618.66 448.76,623.98 449.35,622.17 449.93,627.70 450.52,629.75 451.10,630.46 451.69,637.89 452.27,632.51 452.86,626.21 453.44,627.38 454.03,615.19 454.61,619.51 455.20,616.30 455.78,617.62 456.37,615.01 456.96,630.45 457.54,630.53 458.13,630.22 458.71,640.05 459.30,632.96 459.88,636.06 460.47,636.07 461.05,634.72 461.64,641.46 462.22,630.36 462.81,619.18 463.39,627.33 463.98,624.99 464.56,623.67 465.15,626.68 465.73,638.27 466.32,634.00 466.90,631.42 467.49,629.54 468.07,620.29 468.66,623.37 469.24,625.59 469.83,627.33 470.41,628.83 471.00,632.19 471.58,628.15 472.17,626.25 472.75,630.48 473.34,626.01 473.92,623.84 474.51,620.02 475.09,631.07 475.68,630.85 476.26,632.72 476.85,639.59 477.43,638.78 478.02,640.03 478.60,635.32 479.19,640.19 479.77,637.24 480.36,627.26 480.94,626.90 481.53,629.59 482.11,636.61 482.70,638.47 483.28,639.49 483.87,638.17 484.45,637.94 485.04,631.54 485.62,636.11 486.21,636.97 486.79,640.45 487.38,643.67 487.96,648.44 488.55,652.79 489.13,650.29 489.72,652.01 490.30,654.91 490.89,656.48 491.48,655.19 492.06,656.04 492.65,657.11 493.23,651.13 493.82,650.78 494.40,650.03 494.99,647.29 495.57,648.30 496.16,648.25 496.74,650.60 497.33,641.63 497.91,640.43 498.50,641.35 499.08,633.18 499.67,631.58 500.25,636.45 500.84,636.02 501.42,633.95 502.01,632.03 502.59,630.63 503.18,627.96 503.76,629.47 504.35,624.70 504.93,622.69 505.52,613.20 506.10,613.04 506.69,609.10 507.27,608.01 507.86,613.20 508.44,601.32 509.03,603.06 509.61,601.31 510.20,602.21 510.78,586.28 511.37,565.38 511.95,568.20 512.54,570.30 513.12,574.84 513.71,565.33 514.29,560.02 514.88,553.02 515.46,550.77 516.05,548.80 516.63,569.92 517.22,564.50 517.80,560.27 518.39,571.47 518.97,579.31 519.56,580.03 520.14,571.59 520.73,574.78 521.31,575.01 521.90,577.19 522.48,579.81 523.07,584.43 523.65,594.06 524.24,589.13 524.82,583.03 525.41,571.44 526.00,561.10 526.58,558.94 527.17,554.85 527.75,551.23 528.34,549.92 528.92,551.84 529.51,552.67 530.09,564.42 530.68,567.79 531.26,567.71 531.85,556.50 532.43,554.51 533.02,553.47 533.60,556.00 534.19,560.67 534.77,565.21 535.36,565.00 535.94,575.49 536.53,578.39 537.11,582.48 537.70,578.27 538.28,599.41 538.87,600.11 539.45,607.46 540.04,610.29 540.62,592.23 541.21,595.27 541.79,595.79 542.38,583.82 542.96,588.47 543.55,597.02 544.13,606.35 544.72,599.04 545.30,600.82 545.89,607.69 546.47,606.47 547.06,600.32 547.64,597.19 548.23,596.32 548.81,598.50 549.40,599.94 549.98,600.61 550.57,600.79 551.15,599.30 551.74,608.33 552.32,603.46 552.91,587.51 553.49,593.06 554.08,593.52 554.66,596.80 555.25,597.81 555.83,595.03 556.42,591.72 557.00,579.42 557.59,576.81 558.17,576.83 558.76,577.03 559.34,583.17 559.93,576.78 560.52,577.22 561.10,570.28 561.69,571.19 562.27,575.89 562.86,577.01 563.44,574.67 564.03,581.10 564.61,582.46 565.20,581.99 565.78,580.82 566.37,579.87 566.95,577.16 567.54,578.17 568.12,577.10 568.71,580.04 569.29,576.40 569.88,575.62 570.46,577.22 571.05,576.13 571.63,570.44 572.22,569.47 572.80,570.29 573.39,571.19 573.97,573.39 574.56,574.79 575.14,579.80 575.73,585.75 576.31,586.49 576.90,590.02 577.48,586.29 578.07,590.59 578.65,582.29 579.24,583.93 579.82,582.78 580.41,577.54 580.99,577.45 581.58,569.96 582.16,567.81 582.75,569.61 583.33,570.09 583.92,568.37 584.50,574.45 585.09,570.83 585.67,570.55 586.26,570.56 586.84,569.16 587.43,563.46 588.01,563.68 588.60,563.74 589.18,558.38 589.77,557.67 590.35,553.64 590.94,554.29 591.52,558.44 592.11,553.86 592.69,556.71 593.28,562.88 593.86,561.47 594.45,557.96 595.04,554.13 595.62,552.17 596.21,552.16 596.79,560.37 597.38,569.25 597.96,560.96 598.55,569.98 599.13,573.65 599.72,574.16 600.30,567.10 600.89,564.94 601.47,560.12 602.06,563.83 602.64,566.28 603.23,563.53 603.81,571.49 604.40,570.84 604.98,567.02 605.57,571.28 606.15,567.32 606.74,561.41 607.32,557.32 607.91,558.43 608.49,558.44 609.08,564.40 609.66,557.70 610.25,554.23 610.83,550.93 611.42,553.15 612.00,551.67 612.59,553.70 613.17,559.81 613.76,563.11 614.34,559.19 614.93,556.37 615.51,559.30 616.10,558.35 616.68,554.39 617.27,559.10 617.85,559.96 618.44,570.53 619.02,572.96 619.61,571.27 620.19,566.61 620.78,568.14 621.36,570.90 621.95,570.64 622.53,568.04 623.12,564.38 623.70,559.48 624.29,555.71 624.87,557.82 625.46,551.81 626.04,557.70 626.63,555.73 627.21,551.52 627.80,541.77 628.38,536.20 628.97,539.26 629.56,542.94 630.14,546.41 630.73,551.97 631.31,545.25 631.90,544.66 632.48,540.46 633.07,545.01 633.65,542.02 634.24,540.48 634.82,536.73 635.41,537.17 635.99,534.12 636.58,534.29 637.16,540.10 637.75,532.60 638.33,531.58 638.92,524.60 639.50,526.27 640.09,522.92 640.67,523.05 641.26,520.70 641.84,513.77 642.43,519.51 643.01,508.56 643.60,520.56 644.18,555.56 644.77,535.57 645.35,526.91 645.94,517.72 646.52,525.17 647.11,522.73 647.69,525.54 648.28,511.78 648.86,515.34 649.45,513.01 650.03,501.04 650.62,496.25 651.20,507.98 651.79,492.26 652.37,490.83 652.96,480.88 653.54,464.89 654.13,493.25 654.71,506.69 655.30,525.38 655.88,511.49 656.47,509.58 657.05,515.73 657.64,515.10 658.22,522.80 658.81,537.84 659.39,524.54 659.98,535.25 660.56,543.60 661.15,545.86 661.73,573.56 662.32,572.94 662.90,583.37 663.49,580.09 664.07,575.84 664.66,594.71 665.25,588.45 665.83,576.19 666.42,583.80 667.00,582.52 667.59,586.16 668.17,587.59 668.76,585.28 669.34,572.03 669.93,578.54 670.51,568.95 671.10,568.62 671.68,571.25 672.27,578.99 672.85,579.11 673.44,572.17 674.02,573.33 674.61,571.40 675.19,566.58 675.78,565.25 676.36,570.01 676.95,567.14 677.53,568.72 678.12,573.20 678.70,567.45 679.29,560.63 679.87,563.02 680.46,558.83 681.04,555.06 681.63,555.27 682.21,552.29 682.80,552.82 683.38,552.76 683.97,550.85 684.55,552.94 685.14,551.17 685.72,559.47 686.31,551.03 686.89,555.05 687.48,557.35 688.06,569.01 688.65,569.54 689.23,563.86 689.82,569.34 690.40,570.25 690.99,568.70 691.57,551.77 692.16,548.10 692.74,546.96 693.33,543.78 693.91,540.12 694.50,538.34 695.08,537.82 695.67,532.64 696.25,535.63 696.84,533.91 697.42,540.19 698.01,532.48 698.59,531.38 699.18,523.59 699.77,517.78 700.35,513.83 700.94,512.21 701.52,509.41 702.11,511.16 702.69,498.14 703.28,491.69 703.86,482.32 704.45,467.69 705.03,436.82 705.62,439.85 706.20,424.94 706.79,423.13 707.37,434.21 707.96,424.80 708.54,424.88 709.13,442.08 709.71,473.13 710.30,473.07 710.88,461.58 711.47,461.77 712.05,458.82 712.64,450.84 713.22,478.13 713.81,475.29 714.39,468.61 714.98,452.93 715.56,449.73 716.15,434.17 716.73,422.59 717.32,430.65 717.90,423.59 718.49,425.58 719.07,428.84 719.66,430.75 720.24,441.67 720.83,444.95 721.41,451.19 722.00,446.48 722.58,435.30 723.17,433.99 723.75,444.47 724.34,455.41 724.92,449.97 725.51,449.81 726.09,445.64 726.68,453.29 727.26,451.32 727.85,437.05 728.43,439.85 729.02,436.90 729.60,434.12 730.19,438.46 730.77,447.62 731.36,466.44 731.94,467.02 732.53,479.49 733.11,481.65 733.70,467.68 734.29,463.26 734.87,465.88 735.46,470.23 736.04,466.64 736.63,458.66 737.21,468.26 737.80,471.58 738.38,466.99 738.97,484.25 739.55,483.36 740.14,479.34 740.72,474.85 741.31,473.62 741.89,456.78 742.48,442.76 743.06,441.73 743.65,449.26 744.23,454.64 744.82,455.71 745.40,458.86 745.99,449.58 746.57,451.98 747.16,454.00 747.74,459.34 748.33,456.29 748.91,454.91 749.50,450.22 750.08,443.54 750.67,453.81 751.25,446.45 751.84,444.94 752.42,443.74 753.01,424.27 753.59,423.24 754.18,409.57 754.76,414.22 755.35,426.89 755.93,426.50 756.52,433.76 757.10,432.93 757.69,435.36 758.27,438.51 758.86,439.62 759.44,435.66 760.03,426.24 760.61,430.17 761.20,431.98 761.78,431.07 762.37,426.77 762.95,423.79 763.54,410.25 764.12,416.19 764.71,420.75 765.29,421.72 765.88,426.08 766.46,420.32 767.05,428.54 767.63,439.21 768.22,440.61 768.81,434.71 769.39,430.09 769.98,428.35 770.56,417.19 771.15,414.02 771.73,397.96 772.32,410.15 772.90,401.97 773.49,403.53 774.07,391.30 774.66,379.01 775.24,395.63 775.83,381.25 776.41,362.12 777.00,336.59 777.58,316.96 778.17,309.87 778.75,289.03 779.34,293.43 779.92,308.57 780.51,281.24 781.09,286.34 781.68,306.54 782.26,309.88 782.85,291.88 783.43,312.85 784.02,306.33 784.60,285.84 785.19,276.15 785.77,272.98 786.36,288.39 786.94,277.77 787.53,303.81 788.11,315.96 788.70,318.31 789.28,296.73 789.87,295.28 790.45,298.08 791.04,305.42 791.62,289.96 792.21,268.48 792.79,247.11 793.38,251.76 793.96,259.96 794.55,283.47 795.13,289.26 795.72,323.52 796.30,325.74 796.89,339.59 797.47,322.30 798.06,337.60 798.64,326.38 799.23,357.04 799.81,370.92 800.40,397.25 800.98,410.72 801.57,401.26 802.15,382.77 802.74,380.45 803.33,398.80 803.91,398.65 804.50,389.80 805.08,385.26 805.67,402.64 806.25,394.35 806.84,402.66 807.42,415.52 808.01,419.32 808.59,399.49 809.18,401.68 809.76,388.94 810.35,399.99 810.93,390.23 811.52,377.64 812.10,377.05 812.69,381.91 813.27,382.48 813.86,392.81 814.44,409.19 815.03,413.36 815.61,400.36 816.20,402.18 816.78,396.08 817.37,381.34 817.95,384.18 818.54,383.64 819.12,379.18 819.71,372.41 820.29,372.59 820.88,363.40 821.46,362.21 822.05,360.46 822.63,355.50 823.22,366.42 823.80,378.54 824.39,365.88 824.97,375.53 825.56,365.54 826.14,375.49 826.73,358.39 827.31,343.38 827.90,346.81 828.48,342.08 829.07,351.72 829.65,350.34 830.24,352.23 830.82,339.08 831.41,341.26 831.99,343.60 832.58,341.26 833.16,327.22 833.75,329.50 834.33,338.53 834.92,346.17 835.50,344.56 836.09,345.06 836.67,350.85 837.26,349.84 837.85,330.40 838.43,327.64 839.02,331.60 839.60,361.95 840.19,344.34 840.77,329.46 841.36,331.99 841.94,329.22 842.53,313.59 843.11,311.90 843.70,299.16 844.28,292.78 844.87,302.04 845.45,287.82 846.04,293.73 846.62,311.31 847.21,301.20 847.79,311.27 848.38,291.56 848.96,291.82 849.55,287.09 850.13,266.12 850.72,272.71 851.30,287.64 851.89,279.79 852.47,288.12 853.06,289.51 853.64,290.12 854.23,269.13 854.81,262.60 855.40,277.84 855.98,286.60 856.57,324.39 857.15,330.51 857.74,295.60 858.32,291.92 858.91,280.06 859.49,301.31 860.08,272.75 860.66,278.52 861.25,278.92 861.83,289.83 862.42,289.94 863.00,294.85 863.59,297.12 864.17,308.14 864.76,319.99 865.34,325.78 865.93,317.80 866.51,314.41 867.10,320.10 867.68,304.32 868.27,297.18 868.85,298.10 869.44,307.88 870.02,298.50 870.61,290.80 871.19,294.26 871.78,314.36 872.37,306.07 872.95,325.26 873.54,307.33 874.12,289.70 874.71,290.42 875.29,288.48 875.88,285.14 876.46,283.70 877.05,300.81 877.63,304.56 878.22,326.99 878.80,326.61 879.39,322.70 879.97,323.17 880.56,326.56 881.14,345.53 881.73,348.77 882.31,360.65 882.90,345.04 883.48,347.88 884.07,346.20 884.65,352.76 885.24,335.58 885.82,342.86 886.41,339.98 886.99,339.30 887.58,333.76 888.16,332.85 888.75,334.08 889.33,333.93 889.92,316.86 890.50,315.91 891.09,319.85 891.67,331.78 892.26,319.43 892.84,337.86 893.43,340.61 894.01,346.76 894.60,325.38 895.18,331.64 895.77,323.47 896.35,324.78 896.94,338.21 897.52,341.20 898.11,336.94 898.69,357.44 899.28,358.96 899.86,348.78 900.45,348.01 901.03,345.79 901.62,330.11 902.20,329.69 902.79,324.48 903.37,329.91 903.96,326.12 904.54,320.43 905.13,329.79 905.71,335.04 906.30,332.76 906.89,335.41 907.47,342.89 908.06,345.35 908.64,331.27 909.23,329.52 909.81,334.35 910.40,327.38 910.98,334.86 911.57,341.47 912.15,337.99 912.74,350.53 913.32,354.50 913.91,354.55 914.49,357.63 915.08,352.74 915.66,353.20 916.25,356.25 916.83,352.77 917.42,365.50 918.00,365.14 918.59,372.06 919.17,369.35 919.76,380.65 920.34,390.02 920.93,387.91 921.51,387.25 922.10,390.78 922.68,388.91 923.27,400.84 923.85,401.45 924.44,399.08 925.02,404.87 925.61,403.74 926.19,391.97 926.78,395.89 927.36,400.47 927.95,412.32 928.53,408.44 929.12,411.27 929.70,422.63 930.29,404.72 930.87,410.28 931.46,408.65 932.04,413.92 932.63,422.71 933.21,428.15 933.80,427.99 934.38,423.29 934.97,418.35 935.55,414.99 936.14,421.81 936.72,424.27 937.31,420.12 937.89,428.89 938.48,429.43 939.06,425.84 939.65,429.44 940.23,438.14 940.82,441.08 941.41,449.77 941.99,461.18 942.58,474.92 943.16,488.19 943.75,493.38 944.33,493.58 944.92,504.72 945.50,531.26 946.09,517.50 946.67,518.16 947.26,517.46 947.84,513.90 948.43,521.96 949.01,514.92 949.60,505.89 950.18,519.35 950.77,517.17 951.35,517.19 951.94,521.81 952.52,531.34 953.11,535.59 953.69,546.92 954.28,548.37 954.86,552.98 955.45,563.28 956.03,559.70 956.62,559.59 957.20,559.93 957.79,569.98 958.37,573.98 958.96,574.47 959.54,587.03 960.13,598.20 960.71,595.33 961.30,617.34 961.88,618.52 962.47,604.43 963.05,603.05 963.64,599.51 964.22,598.76 964.81,609.40 965.39,611.05 965.98,607.92 966.56,605.85 967.15,608.11 967.73,606.12 968.32,608.21 968.90,605.89 969.49,606.57 970.07,601.40 970.66,594.13 971.24,596.47 971.83,605.39 972.41,604.20 973.00,606.05 973.58,605.69 974.17,604.41 974.75,599.25 975.34,600.28 975.93,599.91 976.51,586.93 977.10,587.89 977.68,582.94 978.27,590.17 978.85,582.93 979.44,581.38 980.02,573.10 980.61,573.12 981.19,577.74 981.78,571.98 982.36,570.65 982.95,574.77 983.53,575.05 984.12,567.52 984.70,560.17 985.29,553.41 985.87,543.92 986.46,556.84 987.04,546.99 987.63,544.99 988.21,542.45 988.80,540.09 989.38,544.43 989.97,536.99 990.55,542.51 991.14,550.07 991.72,557.64 992.31,553.16 992.89,551.44 993.48,554.56 994.06,553.55 994.65,559.41 995.23,559.51 995.82,568.53 996.40,566.48 996.99,571.74 997.57,567.94 998.16,566.65 998.74,567.09 999.33,568.94 999.91,562.58 1000.50,571.70 1001.08,581.70 1001.67,580.65 1002.25,578.85 1002.84,576.65 1003.42,573.19 1004.01,575.82 1004.59,572.29 1005.18,575.38 1005.76,571.33 1006.35,574.01 1006.93,574.09 1007.52,573.93 1008.10,579.96 1008.69,570.93 1009.27,568.42 1009.86,581.30 1010.44,586.13 1011.03,595.39 1011.62,593.11 1012.20,600.98 1012.79,614.55 1013.37,615.92 1013.96,618.33 1014.54,610.46 1015.13,605.65 1015.71,601.57 1016.30,609.59 1016.88,607.88 1017.47,609.52 1018.05,613.59 1018.64,614.12 1019.22,619.81 1019.81,618.62 1020.39,620.85 1020.98,620.87 1021.56,620.78 1022.15,621.45 1022.73,614.67 1023.32,616.03 1023.90,623.54 1024.49,626.24 1025.07,626.85 1025.66,635.87 1026.24,635.27 1026.83,630.60 1027.41,635.20 1028.00,627.25 1028.58,630.30 1029.17,628.97 1029.75,634.75 1030.34,638.94 1030.92,639.55 1031.51,652.90 1032.09,649.92 1032.68,649.23 1033.26,652.46 1033.85,659.22 1034.43,659.73 1035.02,647.11 1035.60,646.80 1036.19,649.41 1036.77,637.96 1037.36,639.47 1037.94,643.58 1038.53,647.58 1039.11,651.43 1039.70,644.70 1040.28,645.73 1040.87,641.67 1041.45,644.00 1042.04,645.33 1042.62,649.16 1043.21,652.34 1043.79,656.89 1044.38,660.49 1044.96,664.71 1045.55,659.51 1046.14,661.23 1046.72,648.03 1047.31,649.81 1047.89,649.14 1048.48,652.02 1049.06,639.83 1049.65,641.10 1050.23,642.17 1050.82,640.90 1051.40,637.19 1051.99,641.73 1052.57,641.39 1053.16,639.57 1053.74,639.41 1054.33,638.50 1054.91,642.60 1055.50,649.08 1056.08,648.15 1056.67,644.31 1057.25,643.66 1057.84,645.24 1058.42,642.44 1059.01,645.06 1059.59,647.43 1060.18,646.10 1060.76,646.00 1061.35,645.08 1061.93,636.45 1062.52,636.53 1063.10,632.69 1063.69,632.09 1064.27,631.65 1064.86,628.94 1065.44,625.37 1066.03,621.16 1066.61,622.19 1067.20,623.78 1067.78,621.54 1068.37,621.68 1068.95,620.64 1069.54,623.01 1070.12,618.21 1070.71,621.02 1071.29,622.40 1071.88,625.19 1072.46,626.15 1073.05,629.02 1073.63,624.29 1074.22,625.82 1074.80,620.41 1075.39,623.04 1075.97,622.68 1076.56,623.53 1077.14,631.59 1077.73,621.44 1078.31,620.20 1078.90,623.93 1079.48,627.32 1080.07,629.37 1080.66,630.40 1081.24,625.58 1081.83,618.63 1082.41,618.73 1083.00,617.80 1083.58,618.03 1084.17,624.34 1084.75,622.23 1085.34,617.87 1085.92,618.96 1086.51,603.78 1087.09,602.52 1087.68,602.98 1088.26,601.95 1088.85,593.32 1089.43,600.74 1090.02,602.81 1090.60,597.28 1091.19,586.02 1091.77,585.54 1092.36,587.12 1092.94,593.95 1093.53,591.55 1094.11,597.15 1094.70,581.03 1095.28,558.66 1095.87,556.26 1096.45,553.64 1097.04,548.92 1097.62,566.34 1098.21,570.04 1098.79,559.82 1099.38,576.89 1099.96,571.16 1100.55,566.36 1101.13,562.65 1101.72,567.47 1102.30,552.01 1102.89,560.89 1103.47,558.23 1104.06,556.13 1104.64,566.89 1105.23,576.64 1105.81,572.42 1106.40,579.78 1106.98,585.83 1107.57,581.24 1108.15,583.47 1108.74,595.80 1109.32,600.69 1109.91,604.39 1110.49,601.64 1111.08,606.02 1111.66,603.83 1112.25,601.95 1112.83,604.32 1113.42,603.37 1114.00,613.82 1114.59,614.80 1115.18,610.43 1115.76,608.19 1116.35,611.51 1116.93,597.98 1117.52,597.66 1118.10,597.68 1118.69,597.70 1119.27,598.52 1119.86,604.22 1120.44,608.64 1121.03,607.44 1121.61,597.49 1122.20,599.29 1122.78,592.11 1123.37,588.32 1123.95,587.01 1124.54,579.25 1125.12,568.42 1125.71,561.89 1126.29,574.16 1126.88,589.42 1127.46,586.79 1128.05,594.46 1128.63,589.42 1129.22,585.70 1129.80,588.95 1130.39,587.09 1130.97,593.68 1131.56,594.73 1132.14,597.62 1132.73,599.22 1133.31,593.60 1133.90,602.41 1134.48,595.08 1135.07,590.35 1135.65,591.24 1136.24,594.11 1136.82,597.15 1137.41,605.95 1137.99,608.09 1138.58,606.14 1139.16,602.49 1139.75,604.68 1140.33,606.85 1140.92,602.31 1141.50,600.47 1142.09,602.97 1142.67,604.02 1143.26,600.19 1143.84,597.66 1144.43,598.94 1145.01,599.47 1145.60,603.82 1146.18,600.28 1146.77,611.55 1147.35,617.65 1147.94,616.81 1148.52,619.00 1149.11,617.28 1149.70,621.66 1150.28,626.87 1150.87,625.44 1151.45,629.89 1152.04,625.84 1152.62,625.10 1153.21,623.76 1153.79,621.15 1154.38,625.39 1154.96,630.61 1155.55,627.50 1156.13,621.81 1156.72,624.41 1157.30,625.31 1157.89,628.58 1158.47,630.97 1159.06,629.70 1159.64,632.27 1160.23,632.95 1160.81,631.44 1161.40,634.31 1161.98,630.34 1162.57,629.51 1163.15,631.51 1163.74,635.23 1164.32,628.84 1164.91,632.08 1165.49,634.52 1166.08,634.84 1166.66,634.85 1167.25,635.01 1167.83,636.40 1168.42,630.51 1169.00,627.22 1169.59,628.95 1170.17,632.61 1170.76,629.59 1171.34,630.58 1171.93,635.76 1172.51,639.52 1173.10,637.60 1173.68,639.02 1174.27,637.39 1174.85,632.37 1175.44,628.70 1176.02,629.76 1176.61,633.84 1177.19,635.89 1177.78,638.58 1178.36,636.89 1178.95,630.23 1179.53,629.65 1180.12,631.23 1180.70,631.80 1181.29,633.80 1181.87,638.30 1182.46,638.00 1183.04,634.17 1183.63,638.36 1184.22,635.48 1184.80,639.21 1185.39,643.12 1185.97,644.37 1186.56,640.80 1187.14,642.81 1187.73,638.83 1188.31,635.55 1188.90,640.30 1189.48,646.25 1190.07,652.42 1190.65,651.43 1191.24,656.04 1191.82,652.92 1192.41,654.73 1192.99,659.14 1193.58,654.13 1194.16,655.88 1194.75,658.83 1195.33,663.22 1195.92,666.19 1196.50,666.34 1197.09,666.02 1197.67,672.20 1198.26,666.02 1198.84,667.64 1199.43,665.34 1200.01,660.71 1200.60,661.69 1201.18,667.76 1201.77,661.79 1202.35,662.81 1202.94,667.97 1203.52,670.64 1204.11,671.07 1204.69,668.59 1205.28,671.87 1205.86,680.57 1206.45,678.98 1207.03,685.43 1207.62,683.74 1208.20,683.20 1208.79,688.83 1209.37,685.47 1209.96,690.61 1210.54,690.50 1211.13,687.63 1211.71,688.44 1212.30,684.27 1212.88,685.78 1213.47,683.44 1214.05,684.30 1214.64,685.05 1215.22,686.28 1215.81,687.08 1216.39,682.92 1216.98,681.89 1217.56,681.09 1218.15,682.22 1218.74,674.99 1219.32,672.04 1219.91,671.16 1220.49,667.61 1221.08,669.10 1221.66,673.38 1222.25,669.56 1222.83,674.24 1223.42,668.89 1224.00,662.81 1224.59,658.03 1225.17,655.38 1225.76,658.09 1226.34,657.30 1226.93,652.16 1227.51,649.34 1228.10,651.92 1228.68,651.47 1229.27,648.19 1229.85,645.40 1230.44,640.55 1231.02,642.18 1231.61,644.61 1232.19,646.24 1232.78,648.66 1233.36,651.32 1233.95,650.06 1234.53,656.14 1235.12,654.63 1235.70,654.41 1236.29,650.40 1236.87,651.62 1237.46,653.82 1238.04,654.59 1238.63,656.94 1239.21,658.29 1239.80,657.76 1240.38,655.60 1240.97,655.43 1241.55,659.54 1242.14,655.28 1242.72,654.85 1243.31,657.25 1243.89,664.17 1244.48,668.02 1245.06,664.57 1245.65,664.27 1246.23,654.27 1246.82,654.31 1247.40,658.62 1247.99,656.72 1248.57,657.66 1249.16,659.48 1249.74,658.15 1250.33,659.08 1250.91,660.43 1251.50,661.73 1252.08,662.83 1252.67,660.12 1253.26,656.67 1253.84,654.42 1254.43,657.02 1255.01,657.00 1255.60,657.89 1256.18,662.45 1256.77,660.03 1257.35,663.98 1257.94,663.89 1258.52,665.89 1259.11,669.78 1259.69,665.05 1260.28,662.58 1260.86,664.87 1261.45,661.49 1262.03,665.65 1262.62,666.00 1263.20,664.78 1263.79,662.69 1264.37,659.98 1264.96,656.20 1265.54,654.35 1266.13,653.87 1266.71,655.64 1267.30,655.75 1267.88,657.29 1268.47,661.48 1269.05,657.81 1269.64,658.92 1270.22,655.80 1270.81,652.34 1271.39,651.94 1271.98,653.29 1272.56,652.73 1273.15,653.86 1273.73,651.80 1274.32,644.35 1274.90,643.54 1275.49,639.59 1276.07,641.92 1276.66,640.13 1277.24,635.51 1277.83,640.90 1278.41,640.49 1279.00,641.65 1279.58,641.90 1280.17,649.45 1280.75,650.43 1281.34,654.81 1281.92,654.40 1282.51,653.88 1283.09,658.97 1283.68,655.43 1284.26,657.12 1284.85,665.28 1285.43,675.52 1286.02,673.11 1286.60,673.85 1287.19,675.32 1287.78,674.40 1288.36,676.20 1288.95,676.04 1289.53,676.04 1290.12,674.21 1290.70,672.28 1291.29,671.05 1291.87,671.67 1292.46,670.76 1293.04,671.43 1293.63,672.38 1294.21,673.77 1294.80,674.42 1295.38,676.03 1295.97,681.51 1296.55,680.88 1297.14,681.64 1297.72,682.65 1298.31,683.00 1298.89,683.81 1299.48,684.39 1300.06,686.18 1300.65,685.92 1301.23,686.37 1301.82,686.22 1302.40,685.75 1302.99,681.88 1303.57,682.26 1304.16,681.03 1304.74,679.89 1305.33,674.05 1305.91,670.44 1306.50,662.85 1307.08,651.93 1307.67,633.54 1308.25,616.10 1308.84,638.33 1309.42,641.25 1310.01,650.65 1310.59,649.49 1311.18,653.73 1311.76,660.52 1312.35,659.15 1312.93,643.69 1313.52,644.50 1314.10,646.66 1314.69,646.23 1315.27,651.68 1315.86,641.44 1316.44,640.37 1317.03,644.91 1317.61,645.82 1318.20,640.27 1318.78,645.72 1319.37,638.29 1319.95,626.25 1320.54,622.56 1321.12,615.77 1321.71,616.97 1322.30,606.85 1322.88,615.23 1323.47,613.92 1324.05,625.33 1324.64,627.88 1325.22,636.40 1325.81,638.09 1326.39,633.24 1326.98,628.92 1327.56,635.75 1328.15,633.33 1328.73,641.00 1329.32,633.82 1329.90,637.68 1330.49,628.26 1331.07,628.60 1331.66,631.29 1332.24,636.17 1332.83,631.95 1333.41,629.05 1334.00,631.14 1334.58,630.47 1335.17,632.45 1335.75,631.35 1336.34,641.05 1336.92,644.54 1337.51,644.29 1338.09,640.68 1338.68,632.14 1339.26,627.42 1339.85,632.71 1340.43,629.21 1341.02,625.98 1341.60,623.90 1342.19,628.35 1342.77,624.45 1343.36,633.31 1343.94,644.87 1344.53,650.81 1345.11,651.46 1345.70,644.74 1346.28,641.00 1346.87,634.48 1347.45,637.45 1348.04,638.47 1348.62,627.06 1349.21,629.78 1349.79,641.62 1350.38,635.66 1350.96,633.13 1351.55,627.10 1352.13,625.04 1352.72,632.48 1353.30,627.31 1353.89,638.15 1354.47,624.85 1355.06,617.55 1355.64,613.90 1356.23,611.29 1356.81,613.47 1357.40,609.61 1357.99,617.52 1358.57,615.66 1359.16,610.31 1359.74,616.26 1360.33,608.27 1360.91,611.49 1361.50,595.56 1362.08,596.63 1362.67,600.46 1363.25,598.14 1363.84,602.19 1364.42,617.20 1365.01,621.10 1365.59,620.94 1366.18,618.51 1366.76,612.12 1367.35,616.06 1367.93,617.80 1368.52,618.52 1369.10,621.17 1369.69,624.69 1370.27,618.65 1370.86,620.15 1371.44,618.82 1372.03,619.87 1372.61,623.09 1373.20,630.46 1373.78,628.51 1374.37,631.35 1374.95,631.30 1375.54,631.91 1376.12,632.13 1376.71,635.18 1377.29,633.30 1377.88,635.85 1378.46,640.55 1379.05,664.07 1379.63,661.03 1380.22,662.60 1380.80,655.47 1381.39,649.51 1381.97,643.77 1382.56,643.28 1383.14,645.32 1383.73,645.53 1384.31,646.94 1384.90,642.55 1385.48,640.04 1386.07,644.06 1386.65,648.77 1387.24,649.94 1387.82,652.33 1388.41,653.52 1388.99,657.55 1389.58,656.19 1390.16,654.63 1390.75,655.10 1391.33,654.31 1391.92,652.16 1392.51,653.41 1393.09,649.26 1393.68,648.84 1394.26,649.49 1394.85,650.79 1395.43,648.21 1396.02,645.60 1396.60,645.48 1397.19,648.01 1397.77,652.49 1398.36,654.67 1398.94,656.92 1399.53,657.51 1400.11,660.21 1400.70,659.49 1401.28,659.85 1401.87,657.44 1402.45,657.36 1403.04,654.11 1403.62,655.50 1404.21,654.34 1404.79,649.21 1405.38,651.03 1405.96,646.56 1406.55,647.59 1407.13,644.00 1407.72,646.70 1408.30,648.07 1408.89,647.56 1409.47,644.78 1410.06,638.40 1410.64,637.71 1411.23,637.46 1411.81,636.47 1412.40,636.96 1412.98,640.04 1413.57,636.05 1414.15,636.66 1414.74,638.56 1415.32,630.74 1415.91,631.78 1416.49,630.03 1417.08,629.81 1417.66,630.14 1418.25,625.72 1418.83,627.83 1419.42,622.05 1420.00,620.28 1420.59,619.03 1421.17,617.89 1421.76,619.62 1422.34,614.44 1422.93,619.07 1423.51,617.61 1424.10,610.92 1424.68,610.60 1425.27,616.77 1425.85,622.97 1426.44,622.31 1427.03,620.08 1427.61,619.57 1428.20,618.21 1428.78,619.55 1429.37,617.40 1429.95,613.57 1430.54,600.80 1431.12,602.55 1431.71,600.31 1432.29,592.66 1432.88,590.73 1433.46,585.25 1434.05,585.72 1434.63,568.63 1435.22,554.05 1435.80,553.71 1436.39,549.62 1436.97,525.13 1437.56,519.24 1438.14,508.45 1438.73,524.52 1439.31,524.79 1439.90,546.10 1440.48,527.66 1441.07,532.94 1441.65,537.83 1442.24,534.98 1442.82,519.01 1443.41,518.51 1443.99,516.15 1444.58,510.62 1445.16,507.87 1445.75,509.18 1446.33,513.61 1446.92,505.25 1447.50,501.40 1448.09,496.85 1448.67,492.42 1449.26,506.55 1449.84,493.20 1450.43,488.48 1451.01,478.90 1451.60,501.04 1452.18,503.55 1452.77,521.90 1453.35,509.96 1453.94,509.25 1454.52,523.15 1455.11,516.72 1455.69,500.88 1456.28,502.94 1456.86,503.98 1457.45,485.42 1458.03,474.71 1458.62,474.71 1459.20,461.98 1459.79,470.10 1460.37,487.72 1460.96,481.75 1461.55,490.24 1462.13,483.55 1462.72,472.21 1463.30,476.53 1463.89,482.74 1464.47,493.91 1465.06,501.07 1465.64,490.79 1466.23,504.68 1466.81,504.25 1467.40,514.88 1467.98,508.67 1468.57,511.71 1469.15,535.43 1469.74,544.63 1470.32,533.61 1470.91,522.14 1471.49,521.61 1472.08,518.03 1472.66,511.30 1473.25,514.65 1473.83,516.77 1474.42,512.38 1475.00,511.10 1475.59,498.08 1476.17,494.77 1476.76,497.08 1477.34,506.73 1477.93,506.59 1478.51,512.02 1479.10,521.60 1479.68,507.22 1480.27,513.75 1480.85,512.71 1481.44,500.73 1482.02,497.09 1482.61,494.96 1483.19,491.85 1483.78,491.24 1484.36,491.69 1484.95,486.81 1485.53,490.03 1486.12,481.53 1486.70,479.80 1487.29,479.26 1487.87,483.61 1488.46,478.75 1489.04,466.48 1489.63,478.05 1490.21,475.88 1490.80,475.87 1491.38,469.66 1491.97,466.28 1492.55,473.64 1493.14,466.34 1493.72,467.40 1494.31,477.75 1494.89,481.35 1495.48,474.64 1496.07,459.36 1496.65,455.00 1497.24,472.36 1497.82,496.40 1498.41,489.37 1498.99,498.02 1499.58,511.69 1500.16,515.58 1500.75,498.86 1501.33,498.91 1501.92,500.53 1502.50,499.83 1503.09,502.95 1503.67,500.57 1504.26,499.04 1504.84,497.88 1505.43,502.52 1506.01,495.16 1506.60,493.89 1507.18,502.77 1507.77,499.92 1508.35,505.68 1508.94,505.91 1509.52,510.61 1510.11,506.90 1510.69,503.80 1511.28,500.53 1511.86,504.68 1512.45,518.11 1513.03,511.61 1513.62,514.64 1514.20,511.63 1514.79,519.83 1515.37,515.52 1515.96,511.85 1516.54,523.39 1517.13,518.39 1517.71,516.24 1518.30,524.22 1518.88,520.15 1519.47,523.16 1520.05,524.29 1520.64,526.60 1521.22,515.50 1521.81,519.99 1522.39,503.40 1522.98,502.00 1523.56,498.38 1524.15,511.37 1524.73,496.01 1525.32,485.77 1525.90,492.48 1526.49,483.63 1527.07,474.23 1527.66,478.56 1528.24,484.52 1528.83,476.64 1529.41,483.28 1530.00,477.95" stroke="#1f6f8b" stroke-width="5"/>
<rect x="1082" y="30" width="423" height="96" rx="8" fill="#ffffff" stroke="#e1e5e8"/>
<line x1="1100" y1="53" x2="1148" y2="53" stroke="#1f6f8b" stroke-width="5"/>
<text class="legend" x="1162" y="59">Strategy  1.88x</text>
<line x1="1100" y1="96" x2="1148" y2="96" stroke="#b8871a" stroke-width="4"/>
<text class="legend" x="1162" y="102">CSI300  1.52x</text>
<text class="small" x="110" y="860">No fees/slippage. Avg holdings: 10.6; Max drawdown: strategy -69.1%, CSI300 -45.6%.</text>
</svg>